<?xml version="1.0" encoding="utf-8"?>
<!-- Generator: Adobe Illustrator 24.1.1, SVG Export Plug-In . SVG Version: 6.00 Build 0)  -->
<svg version="1.1" id="_x2018_лой_x5F_1" xmlns="http://www.w3.org/2000/svg" xmlns:xlink="http://www.w3.org/1999/xlink"
	 x="0px" y="0px" viewBox="0 0 3200 2000" style="enable-background:new 0 0 3200 2000;" xml:space="preserve">
<style type="text/css">
	.st0{fill:#EBF3FA;}
	.st1{opacity:0.2;fill:#80B4FF;}
	.st2{opacity:0.4;fill:#3085FF;}
	.st3{opacity:0.4;fill:#80B4FF;}
	.st4{fill:#80B4FF;}
	.st5{fill:#AFCDFB;}
	.st6{fill:#96D56D;}
	.st7{opacity:0.8;fill:#F8FCFF;}
	.st8{fill:#C4E052;}
	.st9{fill:#A36F4B;}
	.st10{fill:#D8A987;}
	.st11{opacity:0.8;fill:#FFFFFF;}
	.st12{fill:#F8FCFF;}
	.st13{fill:#509B67;}
	.st14{fill:#82B378;}
	.st15{fill:#FFFFFF;}
	.st16{fill:#F99746;}
	.st17{fill:#A65408;}
	.st18{fill:#163560;}
	.st19{fill:#1C468A;}
	.st20{fill:#ED7D2B;}
	.st21{fill:#91572F;}
	.st22{fill:#784E33;}
	.st23{fill:#0D1F38;}
	.st24{fill:#29589B;}
	.st25{fill:#59A649;}
	.st26{fill:#EDC5A2;}
	.st27{fill:#F9DDBF;}
</style>
<g>
	<path class="st0" d="M3026.16,1622.72c-15.66,98.71-100.71,171.41-200.64,171.36l-575.56-0.26l-504.33-0.24h-15.14l-107.97-0.04
		h-13.93l-103.04-0.05l-17.62-0.01l-143.57-0.06l-25.31-0.02l-117.09-0.06h-17.49l-14.35-0.01l-201.8-0.1l-35.24-0.01l-155.89-0.07
		h-8.88l-24.35-0.01l-240.38-0.12c-30.74-0.01-60.5-6.75-87.49-19.14c-40.89-18.77-75.41-50.52-97.37-91.6
		c-15.57-29.14-32.35-63.27-48.62-101.4c-26.04-61.05-50.76-132.38-67.06-210.05c-13.04-62.09-20.68-128.24-19.32-196.43
		c0.23-12.25,0.76-24.57,1.61-36.94c0.74-10.73,1.71-21.5,2.92-32.3c3.9-34.75,10.39-69.84,19.89-105.01
		c11.53-42.66,27.51-85.44,48.74-127.92c25.24-50.49,57.94-100.53,99.43-149.35c22.41-26.37,47.39-52.4,75.15-77.93
		C928.89,187.44,1411.41,379.9,1480.35,379.9c332.34,0,252.04-209.78,620.05-241.87c778.31-67.88,662.54,649.08,662.53,649.12
		c0,0.02-11.5,39.43-15.04,54.1c-4.79,19.72-8.46,38.39-11.11,56.1c-0.2,1.35-0.41,2.7-0.6,4.05c-0.74,5.13-1.38,10.17-1.92,15.14
		c-4.01,35.37-3.77,66.75-0.14,94.97c6.77,52.83,25.37,94.59,50.19,130.69c16.56,24.12,35.9,45.69,56.34,66.33
		c5.73,5.79,11.56,11.51,17.43,17.19c7.59,7.34,15.27,14.62,22.95,21.92c10.24,9.73,20.5,19.48,30.56,29.45
		c2.16,2.13,4.31,4.27,6.45,6.43c3.68,3.7,7.32,7.44,10.91,11.22c14.82,15.51,28.96,31.74,41.76,49.32
		c2.81,3.81,5.52,7.69,8.18,11.63c3.12,4.64,6.14,9.38,9.05,14.23c9.28,15.4,17.48,31.89,24.26,49.78
		C3032.1,1472.3,3039.73,1537.14,3026.16,1622.72z"/>
	<path class="st1" d="M1627.02,1360.08l-208.21,123.82l-857.16-128.6l-377.94-180.91c0.23-12.25,0.76-24.57,1.61-36.94
		c0.74-10.73,1.71-21.5,2.92-32.3c3.9-34.75,10.39-69.84,19.89-105.01c11.53-42.66,27.51-85.44,48.74-127.92
		c0,0,254.63-105.71,304.77-73.96c50.14,31.76,193.4,225.15,257.86,215.6c64.47-9.55,112.22-94.65,198.17,27.89
		c85.96,122.53,133.71,166.2,212.5,119.3c78.79-46.91,119.38-113.76,186.24-73.17C1483.28,1128.48,1627.02,1360.08,1627.02,1360.08z
		"/>
	<path class="st2" d="M2840.64,1208.51c-189.05,63.49-789.51,262.34-931.07,274.36c-168.63,14.33-192.3-125.18-192.3-125.18
		s188.62-272.19,212.5-267.42c23.88,4.78,89.02,111.72,114.09,93.81s130.03-382,170.11-385.82c37.6-3.58,92.65,82.86,108.25,68.54
		c8.68-7.96,47.8-89.73,88.15-160.74c32.2-56.69,65.19-106.54,84.07-106.45c18.95,0.08,44.78,41.13,72.02,93.17v0.01
		c45.97,87.82,95.95,206.92,123.66,213.41c13.67,3.2,29.68-1.77,46.65-8.86c-0.2,1.35-0.41,2.7-0.6,4.05
		c-0.74,5.13-1.38,10.17-1.92,15.14c-4.01,35.37-3.77,66.75-0.14,94.97c6.77,52.83,25.37,94.59,50.19,130.69
		C2800.86,1166.3,2820.2,1187.87,2840.64,1208.51z"/>
	<path class="st3" d="M1909.56,1362.78c0,0,68.04-123.17,78.79-103.48s41.18,29.49,55.51,8.48s188.42-209.62,192.69-162.77
		c4.28,46.85-67.35,163.38-38.7,168.68c28.65,5.3,186.23-152.27,241.74-120.04s118.18-26.86,177.27-25.07
		c59.09,1.79,57.33,138.06,57.33,138.06l-478.13,146.65l-225.62,10.74L1863,1411.5L1909.56,1362.78z"/>
	<path class="st4" d="M2881.01,1247.62c0,0-777.08,161.94-858.17,157.49c0,0,57.34-56.97,128.97-59.36s102.67-70,186.24-77.98
		c83.57-7.98,133.71,9.93,168.33-7.98c34.62-17.91,74.02-105.06,155.2-102.67c69.63,2.05,96.22,0.58,122.72-14.95
		c21.2,30.87,46.96,57.59,73.77,83.52C2865.66,1233.05,2873.33,1240.33,2881.01,1247.62z"/>
	<path class="st5" d="M1330.05,1332.9L185.33,1137.54c0,0,0-0.02-0.01-0.08c0.74-10.73,1.71-21.5,2.92-32.3
		c3.9-34.75,10.39-69.84,19.89-105.01c0,0,122.08-24.58,181.17,0c59.09,24.58,53.72,63.98,100.28,69.35
		c46.55,5.37,88.77,0.88,123.79,28.75c35.03,27.85,87.55,47.75,140.87,44.57c53.33-3.19,167.13-15.91,211.71,19.9
		c44.56,35.81,132.91,113.81,209.31,112.61c76.4-1.19,118.77,19.14,131.32,37.01C1318.74,1329.64,1329.41,1332.73,1330.05,1332.9z"
		/>
	<path class="st6" d="M3032.64,1559c-0.79,19.9-2.89,41.08-6.48,63.73c-15.66,98.71-100.71,171.41-200.64,171.36l-575.56-0.26
		l-504.33-0.24h-15.14l-107.97-0.04h-13.93l-103.04-0.05l-17.62-0.01l-143.57-0.06l-25.31-0.02l-117.09-0.06h-17.49l-14.35-0.01
		l-201.8-0.1l-35.24-0.01l-164.77-0.07l-24.35-0.01l-240.38-0.12c-30.74-0.01-60.5-6.75-87.49-19.14
		c-40.89-18.77-75.41-50.52-97.37-91.6c-40.51-75.82-89.2-185.27-115.68-311.46c-5.36-25.54-9.8-51.74-13.08-78.5
		c-5.41-43.92-7.66-89.31-5.69-135.56c0.74-17.1,2.05-34.31,4-51.61c112.71-1.53,410.4,7.22,764.7,119.83
		c452.76,143.92,870.38,236.4,1174.82,161.18c253.23-62.56,567.73-140.02,753.24-138.54c10.24,9.73,20.5,19.48,30.56,29.45
		c2.16,2.13,4.31,4.27,6.45,6.43c3.68,3.7,7.32,7.44,10.91,11.22c14.82,15.51,28.96,31.74,41.76,49.32
		c2.81,3.81,5.52,7.69,8.18,11.63c3.12,4.64,6.14,9.38,9.05,14.23c9.28,15.4,17.48,31.89,24.26,49.78
		C3026.82,1458.38,3034.83,1503.69,3032.64,1559z"/>
	<path class="st7" d="M1536.99,643.62c0,0,34.98-64.41,118.62-57.26c0,0,121.43-107.36,250.93-14.31c0,0,137.65-23.05,239.59,19.96
		c67.97,28.68,90.42,58.77,90.42,58.77L1536.99,643.62z"/>
	<path class="st7" d="M1070.65,793.24c0,0,29.63-45.31,100.48-40.27c0,0,102.86-75.52,212.55-10.07c0,0,116.6-16.22,202.95,14.04
		c57.57,20.17,76.59,41.34,76.59,41.34L1070.65,793.24z"/>
	<path class="st7" d="M703.07,587.41c0,0,21.1-45.31,71.57-40.27c0,0,73.26-75.52,151.39-10.07c0,0,83.05-16.22,144.55,14.04
		c41.01,20.17,54.55,41.34,54.55,41.34L703.07,587.41z"/>
	<path class="st8" d="M1411.12,1383.53c0,0-444.37-50.48-624.24-115.75c-179.87-65.28-192.94-46.09-149.4-11.51
		c43.55,34.58,294.65,116.29,190.59,125.57s-291.35-18.02-361.93,54.21c-70.58,72.23-181.46,137.15,0,151.17
		c181.46,14.02,711.36-85.53,711.36-85.53L1411.12,1383.53z"/>
	<path class="st9" d="M1901.11,1305.17c0,0,64.47,155.2,71.63,159.97c7.16,4.78,33.51,10.83,35.3,17.99
		c1.79,7.16,42.98,102.07,42.98,102.07l-157.58,30.44l-125.34-73.42L1901.11,1305.17z"/>
	<path class="st10" d="M2825.51,1794.08l-475.45-0.21l-100.11-0.05l-504.33-0.24h-15.14l-107.97-0.04h-13.93l-103.04-0.05
		l-17.62-0.01l-143.57-0.06l-25.31-0.02l-117.09-0.06h-17.49l-14.35-0.01l-201.8-0.1l-35.24-0.01l-164.77-0.07l-24.35-0.01
		l-240.38-0.12c-30.74-0.01-60.5-6.75-87.49-19.14c128.59-59.88,520.18-239.23,830.83-349.34
		c377.25-133.71,592.13-205.34,654.21-119.38c62.08,85.96-164.75,267.42-40.59,272.19c124.16,4.77,422.61-33.43,534.83-11.94
		c111.99,21.44,100.33,64.3,131.14,66.84c0.12,0.01,0.18,0.01,0.18,0.01c31.04,2.39,269.8-14.33,298.46,28.65
		C2853.78,1703.9,2825.51,1794.08,2825.51,1794.08z"/>
	<path class="st11" d="M2566.46,692.78v0.01c0,0-41.38-32.29-50.93-42.02c-9.55-9.72-21.49,13.71-28.65,23.73
		c-7.16,10.02-7.96-21.17-7.96-30.72c0-9.55-68.56,62.31-68.56,62.31l0.01-0.02c32.2-56.69,65.19-106.54,84.07-106.45
		C2513.39,599.7,2539.22,640.75,2566.46,692.78z"/>
	<path class="st12" d="M2152.23,909.45c0,0,48.93-129.57,74.4-125.59c25.47,3.98,60.28,62.75,60.28,62.75s-35.41-30.32-41.97-20.17
		c-6.57,10.15-7.76,30.19-19.1,20.17c-11.34-10.02-18.5-11.47-24.47,0C2195.39,858.08,2152.23,909.45,2152.23,909.45z"/>
	<path class="st13" d="M894.72,1651.37c-31.04,38.2-222.05,50.14-216.08,77.6c4.79,22,93.08,37.87,98.54,64.18h-8.88l-24.35-0.01
		l-240.38-0.12c-30.74-0.01-60.5-6.75-87.49-19.14c-40.89-18.77-75.41-50.52-97.37-91.6c-15.57-29.14-32.35-63.27-48.62-101.4
		c0,0,81.45-82.05,282.02-49.95c200.56,32.1,228.37-51.14,322.33-25.2c93.97,25.94,118.19,3.84,152.81,25.2
		c34.62,21.36-131.32,57.17-149.23,73.88C860.1,1621.53,925.76,1613.17,894.72,1651.37z"/>
	<g>
		<path class="st13" d="M374.58,1539.41c0,0-40.98-98.11-2.22-119.48s-4.35,84.23,12.21,123.42
			C392.77,1562.75,374.58,1539.41,374.58,1539.41z"/>
		<path class="st13" d="M355.68,1563.48c0,0-50.52-62-26.96-86.12c23.55-24.12,14.72,62.04,35.04,86.75
			C373.81,1576.35,355.68,1563.48,355.68,1563.48z"/>
		<path class="st13" d="M392.88,1557.84c0,0-4.78-97.38,35.78-104.04c40.56-6.66-30.39,71.54-28.31,110.49
			C401.38,1583.58,392.88,1557.84,392.88,1557.84z"/>
	</g>
	<g>
		<path class="st14" d="M534.5,1656.09c0,0-5.58-58.75,15.75-63.81c21.33-5.06-4.69,61.19-4.69,61.19L534.5,1656.09z"/>
		<path class="st14" d="M550.42,1657.57c0,0,22.85-46.21,43.35-39.78c20.5,6.44-32.72,43.11-32.72,43.11L550.42,1657.57z"/>
		<path class="st14" d="M506.33,1659.33c0,0,23.08-12.73,42.98-9.55c19.9,3.18,23.08,6.37,31.84,9.55
			c8.75,3.18,19.5,9.55,14.72,12.34c-4.78,2.79-44.57-2.39-54.12,0C532.2,1674.06,482.23,1668.06,506.33,1659.33z"/>
	</g>
	<g>
		<path class="st14" d="M958.67,1738.97c0,0,26.78-124.72,64.09-95.48C1060.06,1672.73,980.52,1701.53,958.67,1738.97z"/>
		<path class="st14" d="M947.71,1745.83c0,0-12.24-90.63,12.52-95.06C985,1646.34,948.03,1718.4,947.71,1745.83z"/>
		<path class="st14" d="M922.48,1738.69c0,0,21.39-10.38,36.96-9.42c15.57,0.96,57.47,5.92,53.63,14.21
			c-3.84,8.29-45.75,1.12-56.37,2.47C946.08,1747.29,911.01,1746.52,922.48,1738.69z"/>
	</g>
	<g>
		<path class="st13" d="M2367.47,1650.67c0,0-0.8-42.98,19.1-50.54C2406.47,1592.57,2369.46,1639.53,2367.47,1650.67z"/>
		<path class="st13" d="M2383.45,1644.55c0,0,15.19-54.37,43.07-56.39C2454.4,1586.14,2390.15,1631.28,2383.45,1644.55z"/>
	</g>
	<g>
		<path class="st13" d="M521.15,1458.61c8.01,3.24,36.61,0.62,37.53-1.67c0.93-2.29-17.78-24.08-25.79-27.32
			c-8-3.24-17.12,0.62-20.37,8.62C509.28,1446.25,513.14,1455.37,521.15,1458.61z"/>
		<path class="st13" d="M593.3,1472.26c-4.49,7.38-6.52,36.03-4.42,37.31c2.1,1.28,26.63-13.66,31.13-21.03
			c4.49-7.38,2.16-17-5.22-21.49C607.41,1462.55,597.79,1464.89,593.3,1472.26z"/>
		<path class="st13" d="M554.75,1528.33c8.23,2.63,36.55-2.17,37.3-4.52c0.75-2.35-19.56-22.66-27.79-25.28
			c-8.23-2.63-17.03,1.92-19.65,10.14S546.52,1525.7,554.75,1528.33z"/>
		<g>
			<path class="st13" d="M596.41,1556.06c-0.03-0.65-3.19-65.49-38.7-98.97l0.75-0.8c35.83,33.79,39.01,99.07,39.04,99.73
				L596.41,1556.06z"/>
		</g>
	</g>
	<g>
		<path class="st13" d="M823.34,1405.25c-7.77,5.16-38.61,8.55-40.08,6.33c-1.47-2.22,13.62-29.32,21.4-34.48
			c7.77-5.16,18.26-3.04,23.42,4.73C833.23,1389.61,831.11,1400.09,823.34,1405.25z"/>
		<path class="st13" d="M749.93,1435.27c6.35,6.84,14.68,36.72,12.72,38.53c-1.95,1.81-31.14-8.71-37.48-15.55
			c-6.35-6.84-5.95-17.53,0.89-23.87C732.89,1428.03,743.58,1428.43,749.93,1435.27z"/>
		<path class="st13" d="M802.82,1486.29c-8.14,4.55-39.15,5.59-40.45,3.27s15.81-28.2,23.96-32.75s18.43-1.64,22.99,6.5
			C813.87,1471.44,810.96,1481.73,802.82,1486.29z"/>
		<g>
			<path class="st13" d="M764.71,1524.62c-0.11-0.7-10.75-70,19.6-113.09l-0.97-0.68c-30.63,43.49-19.92,113.27-19.8,113.97
				L764.71,1524.62z"/>
		</g>
	</g>
	<g>
		<g>
			<path class="st13" d="M669.77,1561.61l-2.28-0.36c-8.97-116.08-44.42-199.37-44.91-200.5l2.07-0.89
				C625.15,1361,660.85,1444.84,669.77,1561.61z"/>
		</g>
		<g>
			<path class="st15" d="M598.53,1349.06c4.37,4.95,24.84,12.92,26.25,11.67c1.41-1.25-3.95-22.55-8.32-27.5s-11.93-5.42-16.88-1.05
				C594.63,1336.55,594.16,1344.11,598.53,1349.06z"/>
			<path class="st15" d="M629.9,1331.8c-3.95,5.3-7.53,26.96-6.02,28.09c1.51,1.13,21.25-8.5,25.2-13.8
				c3.95-5.29,2.85-12.79-2.44-16.74C641.34,1325.41,633.84,1326.5,629.9,1331.8z"/>
			<path class="st15" d="M653.44,1354.84c-6.37-1.74-27.85,2.85-28.35,4.67c-0.5,1.82,15.69,16.67,22.06,18.41
				c6.37,1.74,12.95-2.02,14.68-8.39C663.57,1363.15,659.81,1356.58,653.44,1354.84z"/>
			<path class="st15" d="M638.93,1383.57c-0.64-6.57-12.54-25.03-14.42-24.85c-1.88,0.18-10.03,20.58-9.39,27.15
				c0.64,6.57,6.48,11.39,13.05,10.75C634.75,1395.99,639.57,1390.14,638.93,1383.57z"/>
			<path class="st15" d="M606.35,1382.16c5.85-3.07,18.45-21.06,17.57-22.73c-0.88-1.67-22.84-1.52-28.69,1.55
				c-5.85,3.07-8.1,10.3-5.03,16.15C593.27,1382.97,600.5,1385.22,606.35,1382.16z"/>
			<path class="st16" d="M620.03,1358.8c0.34-2.15,2.36-3.61,4.51-3.27c2.15,0.34,3.61,2.36,3.27,4.51
				c-0.34,2.15-2.36,3.61-4.51,3.27S619.69,1360.95,620.03,1358.8z"/>
		</g>
		<path class="st13" d="M669.12,1442.93c-6.5,7.99-13.51,41.52-11.23,43.38c2.28,1.86,33.67-11.85,40.17-19.84
			c6.5-7.99,5.29-19.74-2.7-26.24C687.37,1433.73,675.62,1434.94,669.12,1442.93z"/>
	</g>
	<g>
		<g>
			<path class="st13" d="M878.29,1569.25l2.28-0.36c8.97-116.07,44.42-199.37,44.91-200.5l-2.07-0.89
				C922.92,1368.63,887.21,1452.48,878.29,1569.25z"/>
		</g>
		<g>
			<path class="st15" d="M949.53,1356.7c-4.37,4.95-24.84,12.92-26.25,11.67c-1.41-1.25,3.95-22.55,8.32-27.5
				c4.37-4.95,11.93-5.42,16.88-1.05C953.43,1344.19,953.9,1351.75,949.53,1356.7z"/>
			<path class="st15" d="M918.17,1339.44c3.95,5.3,7.53,26.96,6.02,28.09c-1.51,1.13-21.25-8.5-25.2-13.8
				c-3.95-5.3-2.85-12.79,2.44-16.74C906.73,1333.05,914.22,1334.14,918.17,1339.44z"/>
			<path class="st15" d="M894.62,1362.48c6.37-1.74,27.85,2.85,28.35,4.67c0.5,1.82-15.69,16.67-22.06,18.41
				c-6.37,1.74-12.95-2.02-14.68-8.39C884.49,1370.79,888.25,1364.21,894.62,1362.48z"/>
			<path class="st15" d="M909.13,1391.2c0.64-6.57,12.54-25.03,14.42-24.85c1.88,0.18,10.03,20.58,9.39,27.15
				c-0.64,6.57-6.48,11.39-13.05,10.75C913.31,1403.62,908.5,1397.78,909.13,1391.2z"/>
			<path class="st15" d="M941.71,1389.79c-5.85-3.07-18.45-21.06-17.57-22.73c0.88-1.67,22.84-1.52,28.69,1.55
				c5.85,3.07,8.1,10.3,5.03,16.15C954.79,1390.61,947.56,1392.86,941.71,1389.79z"/>
			<path class="st16" d="M928.03,1366.44c-0.34-2.15-2.36-3.61-4.51-3.27c-2.15,0.34-3.61,2.36-3.27,4.51
				c0.34,2.15,2.36,3.61,4.51,3.27C926.91,1370.61,928.38,1368.59,928.03,1366.44z"/>
		</g>
		<path class="st13" d="M878.94,1450.57c6.5,7.99,13.51,41.52,11.23,43.38c-2.28,1.85-33.67-11.85-40.17-19.84
			c-6.5-7.99-5.29-19.74,2.7-26.24C860.7,1441.37,872.45,1442.58,878.94,1450.57z"/>
	</g>
	<g>
		<path class="st13" d="M2183.37,1533.73c10.48,4.63,48.51,2.31,49.83-0.69c1.32-2.99-22.6-32.65-33.08-37.28
			c-10.48-4.63-22.73,0.12-27.36,10.61S2172.89,1529.1,2183.37,1533.73z"/>
		<path class="st13" d="M2278.49,1554.75c-6.26,9.6-10.11,47.5-7.37,49.29c2.74,1.79,35.87-17.03,42.13-26.63
			c6.26-9.6,3.55-22.45-6.05-28.71C2297.6,1542.45,2284.75,1545.15,2278.49,1554.75z"/>
		<path class="st13" d="M2225.1,1627.53c10.8,3.81,48.55-1.39,49.64-4.48c1.09-3.08-25.02-30.84-35.82-34.65
			c-10.8-3.81-22.66,1.85-26.47,12.66C2208.63,1611.87,2214.3,1623.72,2225.1,1627.53z"/>
		<g>
			<path class="st13" d="M2279.21,1665.99c-0.01-0.87-1.58-86.97-47.3-132.8l1.03-1.03c46.14,46.25,47.71,132.95,47.72,133.82
				L2279.21,1665.99z"/>
		</g>
	</g>
	<g>
		<g>
			<path class="st13" d="M2349.71,1668.55l-1.99-0.32c-7.85-101.58-38.87-174.48-39.31-175.47l1.82-0.78
				C2310.66,1492.98,2341.91,1566.36,2349.71,1668.55z"/>
		</g>
		<g>
			<path class="st15" d="M2287.36,1482.54c3.83,4.33,21.74,11.31,22.98,10.21c1.24-1.09-3.46-19.73-7.28-24.07
				s-10.44-4.75-14.77-0.92C2283.95,1471.59,2283.54,1478.21,2287.36,1482.54z"/>
			<path class="st15" d="M2314.81,1467.43c-3.45,4.63-6.59,23.6-5.27,24.58c1.32,0.99,18.6-7.44,22.05-12.08s2.5-11.19-2.14-14.65
				C2324.83,1461.84,2318.27,1462.8,2314.81,1467.43z"/>
			<path class="st15" d="M2335.42,1487.59c-5.58-1.52-24.38,2.5-24.81,4.09c-0.43,1.59,13.73,14.59,19.3,16.11
				c5.58,1.52,11.33-1.77,12.85-7.35C2344.29,1494.87,2341,1489.12,2335.42,1487.59z"/>
			<path class="st15" d="M2322.72,1512.74c-0.56-5.75-10.98-21.91-12.62-21.75c-1.64,0.16-8.77,18.01-8.22,23.76
				c0.56,5.75,5.67,9.97,11.42,9.41C2319.06,1523.61,2323.28,1518.49,2322.72,1512.74z"/>
			<path class="st15" d="M2294.21,1511.5c5.12-2.69,16.14-18.43,15.38-19.89s-19.99-1.33-25.11,1.36c-5.12,2.69-7.09,9.01-4.4,14.13
				C2282.76,1512.22,2289.09,1514.19,2294.21,1511.5z"/>
			<path class="st16" d="M2306.18,1491.06c0.3-1.88,2.07-3.16,3.95-2.86c1.88,0.3,3.16,2.07,2.86,3.95s-2.07,3.16-3.95,2.86
				C2307.16,1494.71,2305.88,1492.94,2306.18,1491.06z"/>
		</g>
		<path class="st13" d="M2349.14,1564.69c-5.69,7-11.83,36.34-9.83,37.96c2,1.62,29.47-10.37,35.16-17.36
			c5.69-6.99,4.63-17.28-2.37-22.96S2354.83,1557.7,2349.14,1564.69z"/>
	</g>
	<path class="st13" d="M2825.51,1794.08l-475.45-0.21c2.4-22.66,45.44-34.11,41.45-56.47c-5.12-28.65-216.93-39.4-131.93-75.95
		c83.48-35.9,260.58-29.43,266.91-29.19c0.12,0.01,0.18,0.01,0.18,0.01c31.04,2.39,269.8-14.33,298.46,28.65
		C2853.78,1703.9,2825.51,1794.08,2825.51,1794.08z"/>
	<path class="st17" d="M1415.99,1533.74c0,0,2.92,45.58,11.75,46.21c1.17,0.08,44.73-0.01,44.73-0.01l55.6-0.44
		c0,0-0.39-13.4-16.65-16.19s-43.49-14.16-53.38-35.62C1447.62,1505.11,1415.99,1533.74,1415.99,1533.74z"/>
	<path class="st17" d="M1698.93,1495.11c0,0,8.49,44.88,17.32,44.42c1.17-0.06,44.39-5.49,44.39-5.49l55.13-7.25
		c0,0-2.03-13.25-18.51-14.03c-16.48-0.78-44.89-8.73-57.34-28.81C1726.83,1462.82,1698.93,1495.11,1698.93,1495.11z"/>
	<path class="st18" d="M1600.34,1043.45c0,0-14.34,93.04-68.23,258.25c-53.89,165.22-61.13,236.72-61.13,236.72l-58.2-1.51
		c0,0-0.89-180.43,23.93-263.51c24.82-83.08,4.75-299.31,4.75-299.31L1600.34,1043.45z"/>
	<path class="st19" d="M1616.13,959c0,0,79.23,160,99.38,286.66c20.15,126.66,36.02,242.55,36.02,242.55s-19.47,7.16-55.96,10.32
		c0,0-61.74-183.9-68.29-229.7c-6.55-45.8-190.54-228.9-176.18-274.09C1465.48,949.54,1616.13,959,1616.13,959z"/>
	<path class="st20" d="M1501.33,650.36c0,0-81.82,78.55-85.74,110.89c-3.92,32.34,39.7,82.82,39.7,82.82L1501.33,650.36z"/>
	<path class="st21" d="M1515.38,651.06l30.99,20.22l44.7-8.43c-0.63-3.61-3.61-18.56-6.33-32.11c-0.16-0.8-0.33-1.6-0.48-2.38
		c-2.33-11.53-4.34-21.43-4.34-21.43l-41.81-18.34l-15.59-6.84c0.04,0.24,1.23,12.8,1.4,14.63
		C1526.91,628.92,1515.38,651.06,1515.38,651.06z"/>
	<path class="st20" d="M1579.56,640.68c-0.87-0.36-53.89-15.88-59.64-13.97c-5.75,1.91-9.14,13.06-9.14,13.06l86.71,19.4
		C1597.5,659.17,1590.65,645.32,1579.56,640.68z"/>
	<path class="st16" d="M1437.66,996.5c9.07,40.95,158.55,45.49,197,8.21c4.37-4.25,4.55-23.97,2.84-50.56
		c-3.35-51.95-13.9-130.08-14.39-170.01c-0.24-19.28-2.93-39-6.5-56.9c-7.59-38.15-19.11-68.08-19.11-68.08s-73.06-23.44-86.71-19.4
		C1445.02,659.25,1428.59,955.55,1437.66,996.5z"/>
	<path class="st20" d="M1637.5,954.16c-3.35-51.95-5.16-137.72-5.65-177.65c-0.24-19.28-11.68-31.35-15.24-49.25l-43.93-7.65
		C1572.67,719.59,1530.11,895.07,1637.5,954.16z"/>
	<path class="st18" d="M1558.65,892.7c0,0,49.76-43.48,68.37-70.98l14.06,9.5c0,0-39.23,65.66-76.73,82.97
		C1526.85,931.5,1558.65,892.7,1558.65,892.7z"/>
	<path class="st22" d="M1527.06,596.95c9.21,15.52,43.41,28.88,57.68,33.79c-0.16-0.8-0.33-1.6-0.48-2.38
		c-2.33-11.53-4.34-21.43-4.34-21.43l-41.81-18.34C1528.88,588.49,1523.26,590.56,1527.06,596.95z"/>
	<path class="st21" d="M1594.11,602.44c0,0-63.46,30.66-81.95-9.15c-18.49-39.81-39.13-62.67,0.61-83.93
		c39.74-21.26,54.72-9.75,64.12,2.04C1586.3,523.18,1610.14,593.43,1594.11,602.44z"/>
	<path class="st23" d="M1573.69,507.77c0,0,2.97,49.09-7.37,48.48c-10.33-0.61-19.66-0.82-16.01,13.57
		c3.64,14.39,20.05,29.19-10.45,36.37c-30.5,7.18-86.75-65.86-80.51-82.21C1477.35,476.82,1601.17,449.42,1573.69,507.77z"/>
	<path class="st18" d="M1471.5,822.1c0,0-7.59,0.91-8.29,8.05c-0.7,7.14-5.49,94.07-1.14,96.36s22.42,1.37,23.47,0
		c1.05-1.37,4.96-96.76,2.33-102.51C1487.87,824.01,1479.06,820.59,1471.5,822.1z"/>
	<path class="st21" d="M1637.93,921.26c0,0,10.48,7.77,12.68,16.21c3.57,13.66,1.29,26.44-12.11,31.57
		c-4.95,1.89-5.62-9.84-9.28-14.88c-3.66-5.04-16.73-7.83-13.74-15.51c2.99-7.68,8.83-22.69,8.83-22.69L1637.93,921.26z"/>
	<path class="st21" d="M1620.49,925.79c0,0-8.29,9.11-9.14,14.98c-0.85,5.87-1.19,14.93-1.38,18.8c-0.19,3.87,1.75,7.07,5.34,0.76
		s6.66-14.68,9.1-14.67S1620.49,925.79,1620.49,925.79z"/>
	<path class="st16" d="M1563.07,648.81c0,0,52.03,9.2,92.18,68.09c40.15,58.89,55.02,96.55,47.69,117.82s-43.89,87.22-51.28,96.15
		c-6.32,7.64-24.63,7.09-36.62,1.93c0,0,23.22-98.12,13.88-108.72c-3.99-4.53-55.49-48.02-63.64-26.94
		C1551.79,832.01,1563.07,648.81,1563.07,648.81z"/>
	<path class="st18" d="M1607.52,668.85c0,0-8.53-15.06-28.73-18.07c-20.2-3.01-32.42,20.5-32.42,20.5l15.11,5.74
		c0,0,9.72-17.84,18.5-17.84C1591.07,659.17,1600.04,662.94,1607.52,668.85z"/>
	<g>
		<path class="st18" d="M1574.77,741.05c0,0-21.04-0.28-48.01-0.91c-47.42-1.09-113.16-3.22-114.85-6.66
			c-2.64-5.41,0.87-65.58,17.08-69.93c1.41-0.38,3.43-0.7,5.95-0.93c26.17-2.51,106.2,2.24,124.66,8.18
			C1579.81,677.32,1574.77,741.05,1574.77,741.05z"/>
		<path class="st19" d="M1526.76,740.14c-47.42-1.09-113.16-3.22-114.85-6.66c-2.64-5.41,0.87-65.58,17.08-69.93
			c1.41-0.38,3.43-0.7,5.95-0.93c30.96,1.35,65.3,4.54,76.58,8.18C1530.32,676.86,1527.29,732.34,1526.76,740.14z"/>
		<path class="st19" d="M1574.77,741.05c0,0-162.43-16.14-190.56-6.75c-28.13,9.39-28.13,201.03-19.34,214.21
			c8.79,13.19,168.36,25.43,190.99,18.43C1578.49,959.94,1574.77,741.05,1574.77,741.05z"/>
		<path class="st18" d="M1526.79,736.82c0,0-22.25,2.03-24.28,17.85c-2.04,15.82-16.08,208.48-3.35,213.57
			c12.73,5.1,65.7,3.04,68.78,0c3.08-3.03,14.54-214.45,6.83-227.2C1574.77,741.05,1548.94,733.48,1526.79,736.82z"/>
		<g>
			<g>
				<path class="st18" d="M1426.07,684.31c0,0-5.18,26.73,1.51,30.8c6.69,4.07,22.93,5.23,26.97,0.46
					c4.04-4.77,3.16-30.72,3.16-30.72L1426.07,684.31z"/>
				<path class="st24" d="M1426.07,684.31c0,0,2.27,10.81,14.94,11.03c12.67,0.22,16.7-10.48,16.7-10.48
					S1440.51,677.07,1426.07,684.31z"/>
			</g>
			<path class="st16" d="M1438.72,691.12c0.02-1.3,1.1-2.34,2.4-2.32c1.3,0.02,2.34,1.1,2.32,2.4c-0.02,1.3-1.1,2.34-2.4,2.32
				C1439.73,693.5,1438.69,692.43,1438.72,691.12z"/>
		</g>
		<g>
			<g>
				<path class="st18" d="M1473.91,687.56c0,0-6.88,26.34-0.47,30.83c6.41,4.49,22.55,6.69,26.89,2.19
					c4.33-4.5,5.12-30.45,5.12-30.45L1473.91,687.56z"/>
				<path class="st24" d="M1473.91,687.56c0,0,1.57,10.93,14.2,11.96s17.34-9.39,17.34-9.39S1488.79,681.27,1473.91,687.56z"/>
			</g>
			<path class="st16" d="M1486.1,695.17c0.11-1.3,1.25-2.27,2.55-2.16c1.3,0.11,2.27,1.25,2.16,2.55s-1.25,2.27-2.55,2.16
				C1486.96,697.61,1485.99,696.47,1486.1,695.17z"/>
		</g>
		<g>
			<path class="st18" d="M1381.13,756.87c0,0-7.03,24.83-3.08,31.32s93.18,10.88,98.9,5.6s6.59-33.84,6.59-33.84L1381.13,756.87z"/>
			<path class="st24" d="M1381.13,756.87c0,0,12.2,15.38,43.02,15.82c30.82,0.44,59.39-12.75,59.39-12.75
				S1411.46,747.2,1381.13,756.87z"/>
			<circle class="st16" cx="1422.01" cy="766.87" r="2.64"/>
		</g>
		<path class="st24" d="M1459.12,821.08c0,0-73.7-3.15-77.98,0c-4.29,3.15-5.93,104.68-2.64,109.63c3.3,4.94,77.8,7.25,77.8,7.25
			L1459.12,821.08z"/>
	</g>
	<path class="st8" d="M3032.64,1559c-45.16-2.2-113.13-5.68-171.7-9.49c-97.89-6.38-54.92-36.61-9.55-79.6
		c45.37-43-140.87-19.09-279.35-9.5c-138.48,9.59-346.21,4.74-272.21-55.19c73.98-59.94,611.75-128.13,611.75-128.13
		c2.16,2.13,4.31,4.27,6.45,6.43c3.68,3.7,7.32,7.44,10.91,11.22c14.82,15.51,28.96,31.74,41.76,49.32
		c2.81,3.81,5.52,7.69,8.18,11.63c3.12,4.64,6.14,9.38,9.05,14.23c9.28,15.4,17.48,31.89,24.26,49.78
		C3026.82,1458.38,3034.83,1503.69,3032.64,1559z"/>
	<path class="st25" d="M441.2,1231.15c-45.5,0-119.01,2.39-96.58,16.71c22.43,14.33,41.53,35.81-34.87,38.2
		c-75.53,2.36-118.83,6.17-119.81,6.26c-5.41-43.92-7.66-89.31-5.69-135.56c0,0,70.76-20.16,113.74,0
		c42.98,20.16,73.85,3.95,107.28,25.44c33.43,21.49,103.86,23.88,118.19,35.81C537.77,1229.96,486.69,1231.15,441.2,1231.15z"/>
	<g>
		<path class="st26" d="M2198.78,1722.12l3.35-56.94c0,0-28.65-23.84-32.75-25.48c-4.1-1.64-65.95-11.1-65.95-11.1l2.67,53.48
			l19.37,38.86L2198.78,1722.12z"/>
		<path class="st27" d="M2057.91,1720.24c0,0-4-41.46-1.87-45.99c2.13-4.53,40.95-46.96,47.4-45.65
			c6.44,1.31,41.99,14.58,48.21,19.6s20.68,44.26,20.44,48.34c-0.24,4.08-1.48,25.12-1.48,25.12L2057.91,1720.24z"/>
	</g>
	<g>
		<path class="st26" d="M2102.99,1735.45l0.44-24.44c0.07-3.83-1.69-7.46-4.75-9.77c-6.61-4.98-17.85-13.31-19.98-14.07
			c-1.91-0.68-20.53-2.93-34.21-4.52c-7.54-0.88-13.98,5.41-13.29,12.97l2.01,22.12c0.15,1.64,0.64,3.24,1.43,4.68l10.7,19.44
			c2.15,3.91,6.31,6.3,10.78,6.19l35.21-0.87C2097.73,1747.03,2102.88,1741.85,2102.99,1735.45z"/>
		<path class="st27" d="M2009.97,1749.44c-6.2,0.17-11.5-4.41-12.22-10.57c-1.07-9.08-2.24-20.86-1.38-22.9
			c1.43-3.4,38.82-33.76,43.6-32.99c4.78,0.77,21.21,7.46,25.94,10.97s16.54,31.93,16.48,34.94l-0.13,7.1
			c-0.12,6.39-5.24,11.56-11.63,11.74L2009.97,1749.44z"/>
	</g>
	<g>
		<path class="st26" d="M1116.74,1588.21l-0.37-20.67c-0.06-3.24,1.43-6.31,4.02-8.26c5.59-4.21,15.09-11.26,16.9-11.9
			c1.62-0.57,17.36-2.47,28.93-3.82c6.38-0.74,11.82,4.57,11.24,10.97l-1.7,18.71c-0.13,1.39-0.54,2.74-1.21,3.96l-9.05,16.44
			c-1.82,3.31-5.34,5.33-9.11,5.24l-29.78-0.74C1121.19,1598.01,1116.84,1593.63,1116.74,1588.21z"/>
		<path class="st27" d="M1195.41,1600.05c5.24,0.15,9.72-3.73,10.33-8.94c0.9-7.68,1.89-17.64,1.17-19.36
			c-1.21-2.87-32.83-28.55-36.87-27.9s-17.94,6.31-21.94,9.28c-4,2.97-13.99,27-13.94,29.54l0.11,6c0.1,5.41,4.43,9.78,9.83,9.93
			L1195.41,1600.05z"/>
	</g>
	<g>
		<path class="st26" d="M1032.2,1603.41l-0.2-11.24c-0.03-1.76,0.78-3.43,2.19-4.49c3.04-2.29,8.21-6.12,9.19-6.47
			c0.88-0.31,9.44-1.35,15.73-2.08c3.47-0.4,6.43,2.49,6.11,5.96l-0.93,10.17c-0.07,0.76-0.29,1.49-0.66,2.15l-4.92,8.94
			c-0.99,1.8-2.9,2.9-4.96,2.85l-16.19-0.4C1034.62,1608.74,1032.25,1606.35,1032.2,1603.41z"/>
		<path class="st27" d="M1074.98,1609.84c2.85,0.08,5.29-2.03,5.62-4.86c0.49-4.17,1.03-9.59,0.63-10.53
			c-0.66-1.56-17.85-15.53-20.05-15.17c-2.2,0.35-9.75,3.43-11.93,5.04c-2.17,1.61-7.61,14.68-7.58,16.07l0.06,3.26
			c0.05,2.94,2.41,5.32,5.35,5.4L1074.98,1609.84z"/>
	</g>
	<g>
		<path class="st26" d="M1871.77,1639.94l-0.2-11.24c-0.03-1.76,0.78-3.43,2.19-4.49c3.04-2.29,8.21-6.12,9.19-6.47
			c0.88-0.31,9.44-1.35,15.73-2.08c3.47-0.4,6.43,2.49,6.11,5.96l-0.93,10.17c-0.07,0.76-0.29,1.49-0.66,2.15l-4.92,8.94
			c-0.99,1.8-2.9,2.9-4.96,2.85l-16.19-0.4C1874.19,1645.27,1871.82,1642.89,1871.77,1639.94z"/>
		<path class="st27" d="M1914.54,1646.38c2.85,0.08,5.29-2.03,5.62-4.86c0.49-4.18,1.03-9.59,0.63-10.53
			c-0.66-1.56-17.85-15.53-20.05-15.17s-9.75,3.43-11.93,5.04s-7.61,14.68-7.58,16.07l0.06,3.26c0.05,2.94,2.41,5.32,5.35,5.4
			L1914.54,1646.38z"/>
	</g>
	<g>
		<path class="st26" d="M806.33,1758.38l-0.2-11.24c-0.03-1.76,0.78-3.43,2.19-4.49c3.04-2.29,8.21-6.12,9.19-6.47
			c0.88-0.31,9.44-1.34,15.73-2.08c3.47-0.4,6.43,2.49,6.11,5.96l-0.93,10.17c-0.07,0.76-0.29,1.49-0.66,2.15l-4.92,8.94
			c-0.99,1.8-2.9,2.9-4.96,2.85l-16.19-0.4C808.75,1763.71,806.38,1761.33,806.33,1758.38z"/>
		<path class="st27" d="M849.11,1764.82c2.85,0.08,5.29-2.03,5.62-4.86c0.49-4.18,1.03-9.59,0.63-10.53
			c-0.66-1.56-17.85-15.53-20.05-15.17c-2.2,0.35-9.75,3.43-11.93,5.04c-2.17,1.61-7.61,14.68-7.58,16.07l0.06,3.26
			c0.05,2.94,2.41,5.32,5.35,5.4L849.11,1764.82z"/>
	</g>
	<g>
		<path class="st26" d="M1065.38,1570.6l-0.14-7.83c-0.02-1.23,0.54-2.39,1.52-3.13c2.12-1.59,5.72-4.26,6.4-4.51
			c0.61-0.22,6.58-0.94,10.96-1.45c2.42-0.28,4.48,1.73,4.26,4.15l-0.64,7.09c-0.05,0.53-0.2,1.04-0.46,1.5l-3.43,6.23
			c-0.69,1.25-2.02,2.02-3.45,1.98l-11.28-0.28C1067.07,1574.31,1065.42,1572.65,1065.38,1570.6z"/>
		<path class="st27" d="M1095.18,1575.08c1.99,0.06,3.68-1.41,3.91-3.38c0.34-2.91,0.72-6.68,0.44-7.33
			c-0.46-1.09-12.43-10.81-13.96-10.57c-1.53,0.25-6.79,2.39-8.31,3.51c-1.51,1.12-5.3,10.23-5.28,11.19l0.04,2.27
			c0.04,2.05,1.68,3.7,3.72,3.76L1095.18,1575.08z"/>
	</g>
</g>
</svg>
