<?xml version="1.0" encoding="utf-8"?>
<!-- Generator: Adobe Illustrator 24.1.1, SVG Export Plug-In . SVG Version: 6.00 Build 0)  -->
<svg version="1.1" xmlns="http://www.w3.org/2000/svg" xmlns:xlink="http://www.w3.org/1999/xlink" x="0px" y="0px"
	 viewBox="0 0 5710 3710" style="enable-background:new 0 0 5710 3710;" xml:space="preserve">
<style type="text/css">
	.st0{fill:#F4F7FA;}
	.st1{fill:url(#SVGID_1_);}
	.st2{opacity:0.2;}
	.st3{fill:url(#SVGID_2_);}
	.st4{fill:url(#SVGID_3_);}
	.st5{fill:url(#SVGID_4_);}
	.st6{fill:url(#SVGID_5_);}
	.st7{fill:url(#SVGID_6_);}
	.st8{fill:url(#SVGID_7_);}
	.st9{fill:url(#SVGID_8_);}
	.st10{fill:url(#SVGID_9_);}
	.st11{fill:url(#SVGID_10_);}
	.st12{fill:url(#SVGID_11_);}
	.st13{fill:url(#SVGID_12_);}
	.st14{fill:#FFFFFF;}
	.st15{fill:#D8DEE8;}
	.st16{fill:url(#SVGID_13_);}
	.st17{fill:url(#SVGID_14_);}
	.st18{fill:url(#SVGID_15_);}
	.st19{fill:url(#SVGID_16_);}
	.st20{fill:url(#SVGID_17_);}
	.st21{fill:url(#SVGID_18_);}
	.st22{fill:url(#SVGID_19_);}
	.st23{fill:url(#SVGID_20_);}
	.st24{fill:url(#SVGID_21_);}
	.st25{fill:url(#SVGID_22_);}
	.st26{fill:url(#SVGID_23_);}
	.st27{fill:url(#SVGID_24_);}
	.st28{fill:url(#SVGID_25_);}
	.st29{fill:url(#SVGID_26_);}
	.st30{fill:url(#SVGID_27_);}
	.st31{opacity:0.3;fill:url(#SVGID_28_);}
	.st32{fill:url(#SVGID_29_);}
	.st33{opacity:0.6;fill:url(#SVGID_30_);}
	.st34{fill:url(#SVGID_31_);}
	.st35{fill:url(#SVGID_32_);}
	.st36{fill:url(#SVGID_33_);}
	.st37{fill:url(#SVGID_34_);}
	.st38{fill:url(#SVGID_35_);}
	.st39{fill:url(#SVGID_36_);}
	.st40{fill:url(#SVGID_37_);}
	.st41{fill:url(#SVGID_38_);}
	.st42{fill:url(#SVGID_39_);}
	.st43{opacity:0.3;fill:url(#SVGID_40_);}
	.st44{fill:url(#SVGID_41_);}
	.st45{fill:url(#SVGID_42_);}
	.st46{fill:url(#SVGID_43_);}
	.st47{fill:url(#SVGID_44_);}
	.st48{fill:url(#SVGID_45_);}
	.st49{fill:url(#SVGID_46_);}
	.st50{opacity:0.3;fill:url(#SVGID_47_);}
	.st51{fill:url(#SVGID_48_);}
	.st52{fill:url(#SVGID_49_);}
	.st53{fill:url(#SVGID_50_);}
	.st54{fill:url(#SVGID_51_);}
	.st55{fill:url(#SVGID_52_);}
	.st56{fill:url(#SVGID_53_);}
	.st57{fill:url(#SVGID_54_);}
	.st58{fill:url(#SVGID_55_);}
	.st59{fill:url(#SVGID_56_);}
	.st60{fill:url(#SVGID_57_);}
	.st61{opacity:0.3;fill:url(#SVGID_58_);}
	.st62{fill:url(#SVGID_59_);}
	.st63{fill:url(#SVGID_60_);}
	.st64{opacity:0.3;}
	.st65{fill:url(#SVGID_61_);}
	.st66{fill:url(#SVGID_62_);}
	.st67{fill:url(#SVGID_63_);}
	.st68{fill:url(#SVGID_64_);}
	.st69{fill:url(#SVGID_65_);}
	.st70{fill:url(#SVGID_66_);}
	.st71{fill:url(#SVGID_67_);}
	.st72{fill:url(#SVGID_68_);}
	.st73{fill:url(#SVGID_69_);}
</style>
<g id="Background">
</g>
<g id="Illustration">
	<g>
		<path class="st0" d="M2121.69,623.6c-39.52,47.25-98.74,156.48-242.42,277.41c-171.88,144.66-233.78,111.76-313.84,200.49
			c-196.95,218.28-122.75,747.21,122.92,1063.81c83.83,108.04,153.88,150.07,184.91,272.26c66.62,262.37-167.51,418.44-122.96,548.2
			c100.32,292.18,1643.17,537.35,2262.23-340.74c289.13-410.1,332.39-1002.29,74.06-1452.07
			C3614.59,371.18,2371.89,324.51,2121.69,623.6z"/>
		<g>
			<g>
				<linearGradient id="SVGID_1_" gradientUnits="userSpaceOnUse" x1="3428.8335" y1="2517.5349" x2="3486.9849" y2="1645.2712">
					<stop  offset="0" style="stop-color:#6BFFD4"/>
					<stop  offset="0.8462" style="stop-color:#25767A"/>
				</linearGradient>
				<path class="st1" d="M3128.98,2028.33c-69.08,44.18-45.24,52.25-200.77,176.91c-95.47,76.52-150.07,110.05-148.16,162.32
					c1.55,42.25,39.56,84.43,81.42,98.86c72.18,24.89,109.74-48.62,206.41-45.16c93.35,3.34,96.45,73.26,196.79,85.87
					c103.97,13.07,126.23-58.8,240.37-48.46c94.21,8.53,95.3,58.97,182.21,58.15c94.11-0.88,109.8-60.17,203.54-54.28
					c73.52,4.63,101.47,43.46,145.38,23.26c34.61-15.92,58.31-58.94,60.48-98.55c3.26-59.41-42.52-100.14-190.36-244.56
					c-123.95-121.09-114.5-114.66-122.12-120.18C3608.35,1895.13,3317.38,1907.82,3128.98,2028.33z"/>
				<g class="st2">
					<linearGradient id="SVGID_2_" gradientUnits="userSpaceOnUse" x1="2676.321" y1="977.7161" x2="4078.0066" y2="3447.929">
						<stop  offset="0" style="stop-color:#38E8C7"/>
						<stop  offset="1" style="stop-color:#425F63"/>
					</linearGradient>
					<path class="st3" d="M2847.91,2377.25c56.06,37.55,185.67-172,364.43-155.08c105,9.94,118.01,87.71,222.92,81.42
						c105.88-6.36,132.67-87.98,228.74-79.48c78.67,6.96,94.33,64.67,168.65,87.23c44.97,13.65,110.46,14.13,205.2-37.57
						c-29.86-32.38-72.57-73.47-131.54-131.08c-123.95-121.09-114.5-114.66-122.12-120.18c-175.83-127.38-466.8-114.69-655.2,5.82
						c-69.08,44.18-45.24,52.25-200.77,176.91c-37.16,29.79-68.1,53.05-91.95,73.45C2823.9,2345.6,2835.06,2368.65,2847.91,2377.25z
						"/>
				</g>
				<linearGradient id="SVGID_3_" gradientUnits="userSpaceOnUse" x1="3414.9258" y1="2216.3101" x2="3417.8328" y2="1524.3143">
					<stop  offset="0" style="stop-color:#6BFFD4"/>
					<stop  offset="0.8462" style="stop-color:#25767A"/>
				</linearGradient>
				<path class="st4" d="M3163.88,1720.12c-44,42.39-25.51,57.42-92.88,132.22c-77.44,85.96-136.19,104.2-141.36,163.86
					c-2.97,34.31,12.27,76.61,42.33,93.55c46.16,26.01,85.67-31.25,172.46-29.53c84.7,1.68,89.47,57.05,172.58,60.55
					c86.44,3.64,94.57-55.71,195.78-60.09c50.52-2.19,96.45,10.52,182.13,34.24c69.87,19.34,112.18,37.93,133.02,17.5
					c20.64-20.23,1.99-60.83,29.89-82.75c17.34-13.62,32.41-4.12,40.71-15.51c20.55-28.22-51.61-114.38-67.85-133.75
					c-31.41-37.5-45.3-45.41-91.11-93.05c-51.94-54.01-67.11-78.17-85.29-96.92C3552.15,1605.09,3287.41,1601.11,3163.88,1720.12z"
					/>
				<g class="st2">
					<linearGradient id="SVGID_4_" gradientUnits="userSpaceOnUse" x1="2792.6313" y1="911.7164" x2="4194.3179" y2="3381.9312">
						<stop  offset="0" style="stop-color:#38E8C7"/>
						<stop  offset="1" style="stop-color:#425F63"/>
					</linearGradient>
					<path class="st5" d="M2956.46,2041.9c26.34,18.42,86.85-89.03,203.54-108.55c120.58-20.17,167.71,75.87,265.57,42.65
						c83.84-28.47,87.66-112.01,164.77-118.25c53.42-4.32,70.83,34.22,137.63,50.4c26.94,6.53,62.8,9.62,108.67-0.63
						c-2.39-2.89-4.41-5.3-5.93-7.12c-31.41-37.5-45.3-45.41-91.11-93.05c-51.94-54.01-67.11-78.17-85.29-96.92
						c-102.15-105.33-366.89-109.31-490.43,9.69c-44,42.39-25.51,57.42-92.88,132.22c-43.08,47.82-80.36,74.68-105.87,99.38
						C2943.52,2014.15,2947.17,2035.4,2956.46,2041.9z"/>
				</g>
				<linearGradient id="SVGID_5_" gradientUnits="userSpaceOnUse" x1="3413.8103" y1="1816.7412" x2="3418.7781" y2="877.6732">
					<stop  offset="0" style="stop-color:#6BFFD4"/>
					<stop  offset="0.8462" style="stop-color:#25767A"/>
				</linearGradient>
				<path class="st6" d="M3233.66,1522.39c-0.88,0.76-7.7,6.25-15.98,14.74c-18.81,19.29-25.59,34.64-81.14,87.41
					c-48.89,46.44-78.18,67.36-85.21,108.25c-3.26,18.97-4.65,59.18,16.68,72.11c36.64,22.21,87.89-67.82,169.53-61.53
					c68.42,5.28,80.31,72.2,141.51,67.85c60.14-4.28,75.62-70.84,127.94-63.97c42.15,5.54,55.92,51.85,94.99,46.52
					c25.07-3.42,24.82-23.24,52.34-29.08c44-9.34,70.64,35.8,98.86,23.26c19.68-8.74,28.13-40.2,25.2-63.97
					c-5.01-40.56-43.17-58.57-79.96-90.37c-21.93-18.95-36.4-36.78-46.72-53.52c-32.96-53.47-59.11-95.43-71.04-123.61
					c-81.57-192.66-100.21-299.57-133.28-299.75C3388.83,1156.4,3270.98,1490.23,3233.66,1522.39z"/>
			</g>
		</g>
		<g>
			<g>
				<linearGradient id="SVGID_6_" gradientUnits="userSpaceOnUse" x1="2185.1931" y1="2875.6067" x2="2250.7603" y2="1892.1046">
					<stop  offset="0" style="stop-color:#6BFFD4"/>
					<stop  offset="0.8462" style="stop-color:#25767A"/>
				</linearGradient>
				<path class="st7" d="M1847.1,2324.02c-77.88,49.82-51.01,58.92-226.37,199.48c-107.64,86.28-169.21,124.08-167.05,183.01
					c1.74,47.64,44.61,95.2,91.8,111.47c81.38,28.06,123.74-54.82,232.74-50.92c105.26,3.77,108.75,82.6,221.88,96.82
					c117.23,14.73,142.33-66.3,271.02-54.64c106.23,9.62,107.45,66.49,205.45,65.57c106.11-0.99,123.81-67.85,229.49-61.2
					c82.89,5.22,114.41,49.01,163.92,26.23c39.02-17.95,65.75-66.45,68.19-111.11c3.67-66.99-47.94-112.91-214.63-275.75
					c-139.76-136.53-129.1-129.28-137.7-135.51C2387.6,2173.83,2059.53,2188.14,1847.1,2324.02z"/>
				<g class="st2">
					<linearGradient id="SVGID_7_" gradientUnits="userSpaceOnUse" x1="1336.714" y1="1139.4176" x2="2917.1538" y2="3924.6516">
						<stop  offset="0" style="stop-color:#38E8C7"/>
						<stop  offset="1" style="stop-color:#425F63"/>
					</linearGradient>
					<path class="st8" d="M1530.18,2717.43c63.21,42.34,209.35-193.94,410.9-174.85c118.39,11.21,133.06,98.9,251.35,91.8
						c119.38-7.17,149.59-99.19,257.91-89.61c88.7,7.85,106.36,72.92,190.15,98.35c50.7,15.39,124.54,15.93,231.37-42.36
						c-33.67-36.51-81.83-82.84-148.32-147.8c-139.76-136.53-129.1-129.28-137.7-135.51c-198.25-143.63-526.33-129.32-738.75,6.56
						c-77.88,49.82-51.01,58.92-226.37,199.48c-41.9,33.59-76.78,59.81-103.68,82.81
						C1503.11,2681.74,1515.7,2707.74,1530.18,2717.43z"/>
				</g>
				<linearGradient id="SVGID_8_" gradientUnits="userSpaceOnUse" x1="2169.5117" y1="2535.9673" x2="2172.7896" y2="1755.7225">
					<stop  offset="0" style="stop-color:#6BFFD4"/>
					<stop  offset="0.8462" style="stop-color:#25767A"/>
				</linearGradient>
				<path class="st9" d="M1886.45,1976.5c-49.61,47.79-28.76,64.75-104.72,149.08c-87.31,96.93-153.56,117.49-159.39,184.76
					c-3.35,38.68,13.83,86.38,47.73,105.48c52.05,29.33,96.59-35.24,194.45-33.3c95.51,1.89,100.89,64.33,194.59,68.27
					c97.47,4.1,106.63-62.82,220.75-67.76c56.96-2.47,108.75,11.86,205.35,38.6c78.78,21.8,126.48,42.76,149.99,19.73
					c23.27-22.81,2.25-68.59,33.71-93.3c19.55-15.36,36.54-4.64,45.9-17.49c23.17-31.82-58.2-128.96-76.5-150.81
					c-35.42-42.28-51.07-51.2-102.73-104.91c-58.57-60.9-75.67-88.14-96.17-109.28C2324.24,1846.8,2025.74,1842.31,1886.45,1976.5z"
					/>
				<g class="st2">
					<linearGradient id="SVGID_9_" gradientUnits="userSpaceOnUse" x1="1467.8573" y1="1065.0013" x2="3048.2983" y2="3850.2378">
						<stop  offset="0" style="stop-color:#38E8C7"/>
						<stop  offset="1" style="stop-color:#425F63"/>
					</linearGradient>
					<path class="st10" d="M1652.58,2339.32c29.7,20.77,97.93-100.39,229.49-122.4c135.95-22.74,189.1,85.55,299.44,48.08
						c94.53-32.1,98.84-126.3,185.78-133.33c60.23-4.87,79.87,38.58,155.18,56.83c30.38,7.36,70.8,10.85,122.53-0.71
						c-2.69-3.26-4.97-5.98-6.69-8.03c-35.42-42.28-51.07-51.2-102.73-104.91c-58.57-60.9-75.67-88.14-96.17-109.28
						c-115.18-118.77-413.68-123.25-552.97,10.93c-49.61,47.79-28.76,64.75-104.72,149.08c-48.57,53.92-90.61,84.21-119.37,112.05
						C1637.99,2308.02,1642.1,2331.99,1652.58,2339.32z"/>
				</g>
				<linearGradient id="SVGID_10_" gradientUnits="userSpaceOnUse" x1="2168.2542" y1="2085.4421" x2="2173.8555" y2="1026.6165">
					<stop  offset="0" style="stop-color:#6BFFD4"/>
					<stop  offset="0.8462" style="stop-color:#25767A"/>
				</linearGradient>
				<path class="st11" d="M1965.13,1753.56c-0.99,0.86-8.69,7.05-18.02,16.62c-21.21,21.75-28.86,39.06-91.49,98.56
					c-55.12,52.36-88.15,75.95-96.07,122.05c-3.68,21.39-5.24,66.72,18.81,81.3c41.31,25.04,99.1-76.47,191.15-69.37
					c77.14,5.95,90.56,81.4,159.55,76.5c67.81-4.82,85.26-79.87,144.25-72.13c47.52,6.24,63.05,58.47,107.1,52.46
					c28.27-3.86,27.98-26.2,59.01-32.78c49.61-10.53,79.65,40.37,111.47,26.23c22.19-9.86,31.72-45.33,28.41-72.13
					c-5.65-45.73-48.67-66.04-90.16-101.9c-24.73-21.37-41.04-41.47-52.68-60.35c-37.16-60.29-66.64-107.59-80.1-139.38
					c-91.97-217.23-112.98-337.77-150.28-337.98C2140.09,1340.89,2007.21,1717.29,1965.13,1753.56z"/>
			</g>
		</g>
		<g>
			<linearGradient id="SVGID_11_" gradientUnits="userSpaceOnUse" x1="2471.4822" y1="774.3715" x2="2259.665" y2="1453.4318">
				<stop  offset="0" style="stop-color:#FF9085"/>
				<stop  offset="1" style="stop-color:#FB6FBB"/>
			</linearGradient>
			<path class="st12" d="M2678.77,1691.91c26.23-18.12-131.39-265.07-217.97-400.72c-72.21-113.14-110.09-162.53-176.52-184.82
				c-76.04-25.51-117.99,8.48-203.66-25.49c-100.3-39.77-124.3-118.69-153.52-107.42c-39.76,15.34-54.41,184.21,31.15,286.58
				c83.67,100.11,190.87,50.08,367.56,126.67C2566,1490.83,2655.54,1707.95,2678.77,1691.91z"/>
			<linearGradient id="SVGID_12_" gradientUnits="userSpaceOnUse" x1="2286.3984" y1="1249.2654" x2="1551.269" y2="2140.1421">
				<stop  offset="0" style="stop-color:#FF9085"/>
				<stop  offset="1" style="stop-color:#FB6FBB"/>
			</linearGradient>
			<path class="st13" d="M2637.31,1727.28c-48.34-66.8-129.03-154.77-243.01-172.09c-140.56-21.36-191.6,86.01-336.53,60.41
				c-130.19-23-136.26-117.98-311.33-160.36c-104.9-25.39-145.31-1.6-174.44-37.38c-66.8-82.05,36.16-341.9,174.44-367.56
				c99.84-18.53,131.99,101.01,363.41,188.97c136.86,52.02,153.77,20.91,256.52,78.22c86.57,48.28,138.86,113.51,243.43,243.99
				c38.48,48.01,74.33,98.3,57.37,136.45C2660.52,1712.86,2647.59,1721.9,2637.31,1727.28z"/>
			<g>
				<path class="st14" d="M2498.38,2053.82c-121.27,87.2-170.55,212.19-199.23,284.91c-34.1,86.47-102.94,261.04-27.13,444.04
					c75.31,181.82,245.43,256.19,306.18,282.75c199.31,87.14,382.11,46.4,501.26,19.85c163.22-36.38,393.92-87.8,476.79-276.38
					c67.82-154.35,0.43-318.23-29.78-391.68c-76.73-186.6-217.63-283.29-263.41-313.8
					C3065.37,1971.73,2729.62,1887.53,2498.38,2053.82z"/>
				<path class="st15" d="M3526.46,2417.31c-76.73-186.6-217.63-283.29-263.41-313.8c-197.68-131.78-533.43-215.98-764.68-49.69
					c-121.27,87.2-170.55,212.19-199.23,284.91c-34.1,86.47-102.94,261.04-27.13,444.04c75.31,181.82,245.43,256.19,306.18,282.75
					c13.45,5.88,26.83,11.14,40.12,15.9c-76.15-66-127.43-152.33-142.02-247.08c-15.79-102.54,7.16-242.03,99.61-325.42
					c77.15-69.58,141.32-44.73,371.06-96.2c256.14-57.38,285.59-112.73,359.61-93.91c89.32,22.71,184.69,138.5,238.09,513.85
					c4.12-7.65,8-15.53,11.58-23.68C3624.06,2654.63,3556.67,2490.76,3526.46,2417.31z"/>
			</g>
			<g>
				<path class="st14" d="M2705.11,1632.14c-35.93,17.68-122.73,66.49-184.27,168.76c-15.27,25.37-105.75,175.73-54.21,310.51
					c70.53,184.43,368.11,237.94,571.43,173.48c107.12-33.96,269.38-126.44,283.5-258.65c6.27-58.66-17.71-115.01-48.37-187.05
					c-27.5-64.62-53.08-124.75-103.15-171.72C3053.56,1558.18,2848.64,1561.52,2705.11,1632.14z"/>
				<linearGradient id="SVGID_13_" gradientUnits="userSpaceOnUse" x1="2978.2048" y1="2345.1565" x2="2737.7002" y2="1541.1836">
					<stop  offset="0" style="stop-color:#F4F7FA"/>
					<stop  offset="1" style="stop-color:#D8DEE8"/>
				</linearGradient>
				<path class="st16" d="M2612.55,1849.26c62.14-44.02,139.54,23.52,274.86,41.23c87.43,11.44,211.74,3.72,372.54-82.08
					c-23.13-52.82-47.9-101.52-89.91-140.93c-116.49-109.29-321.4-105.96-464.94-35.34c-35.93,17.68-122.73,66.49-184.27,168.76
					c-15.27,25.37-105.75,175.73-54.21,310.51c28.44,74.37,93.82,127.44,175.04,160.08c-24.48-36.74-50.47-86.64-65.01-149.1
					C2571.5,2100.25,2528.87,1908.54,2612.55,1849.26z"/>
			</g>
			<linearGradient id="SVGID_14_" gradientUnits="userSpaceOnUse" x1="2586.3545" y1="1671.288" x2="3272.2925" y2="1671.288">
				<stop  offset="0" style="stop-color:#FF9085"/>
				<stop  offset="1" style="stop-color:#FB6FBB"/>
			</linearGradient>
			<path class="st17" d="M2683.55,1535.46c-11.61,4.39-55.68,22.63-80.17,68.72c-23.19,43.65-22.94,101.23,2.21,140.42
				c30,46.74,89.15,53.7,206.22,65.72c111.18,11.42,189.27,1.92,283.53-10.18c154.59-19.84,169.1-41.2,173.78-53.26
				c15.7-40.44-29.64-103.69-81.47-135.38c-69.89-42.74-109.05-2.11-231.54-18.77C2811.72,1573.07,2768.65,1503.33,2683.55,1535.46z
				"/>
			<g>
				<path class="st15" d="M2069.39,2011.74c-3.84,0-7.62-1.61-10.31-4.65c-0.77-0.87-77.96-87.4-146.02-95.95
					c-7.53-0.95-12.87-7.82-11.92-15.35c0.95-7.53,7.81-12.87,15.35-11.92c65.6,8.24,133.31,73.54,155.65,96.89
					c147.5-80.85,366.06-165.21,449.43-197.39c15.16-5.85,28.25-10.9,30.39-11.92c6.84-3.27,15.05-0.37,18.32,6.48
					c3.27,6.85,0.37,15.05-6.48,18.32c-2.97,1.42-11.53,4.73-32.33,12.76c-84.68,32.69-309.63,119.51-455.39,200.98
					C2073.98,2011.17,2071.68,2011.74,2069.39,2011.74z"/>
				<path class="st15" d="M1968.88,2089.28c-4.19,0-8.32-1.91-11.02-5.52c-4.54-6.08-3.29-14.69,2.79-19.23l82.56-61.64
					c-86.26-35.02-185.68-4.75-186.75-4.41c-7.24,2.26-14.95-1.78-17.21-9.02c-2.26-7.24,1.78-14.95,9.02-17.21
					c5.17-1.62,127.86-38.92,228.03,15.97c4.1,2.25,6.78,6.43,7.11,11.09c0.33,4.66-1.74,9.18-5.49,11.97l-100.82,75.27
					C1974.63,2088.39,1971.74,2089.28,1968.88,2089.28z"/>
			</g>
			<g>
				<path class="st15" d="M3746.6,2049.63c-2.29,0-4.59-0.57-6.7-1.75c-159.14-88.95-404.66-183.71-497.1-219.39
					c-22.66-8.75-31.99-12.36-35.19-13.89c-6.85-3.27-9.75-11.48-6.48-18.32c3.27-6.85,11.47-9.75,18.32-6.48
					c2.37,1.13,16.68,6.65,33.24,13.05c91.12,35.17,330.23,127.46,491.13,215.79c23.58-24.76,97.9-97.02,169.77-106.05
					c7.54-0.97,14.4,4.39,15.35,11.92c0.95,7.53-4.39,14.4-11.92,15.35c-74.88,9.4-159.27,104.16-160.12,105.12
					C3754.23,2048.02,3750.44,2049.63,3746.6,2049.63z"/>
				<path class="st15" d="M3856.27,2134.24c-2.86,0-5.74-0.89-8.21-2.73l-110.02-82.14c-3.75-2.8-5.81-7.31-5.49-11.97
					c0.33-4.67,3-8.84,7.1-11.09c108.86-59.64,242.24-19.08,247.86-17.33c7.25,2.26,11.29,9.97,9.02,17.21
					c-2.26,7.24-9.95,11.28-17.2,9.03l0,0c-1.19-0.37-111.86-33.86-206.68,5.69l91.85,68.58c6.08,4.54,7.33,13.15,2.79,19.23
					C3864.6,2132.33,3860.46,2134.24,3856.27,2134.24z"/>
			</g>
			<path class="st14" d="M2561.4,1200.61c-59.58,128.79-10.34,254.66-6.11,264.98c89.82,219.37,386.69,227.59,411.15,227.91
				c27.16,0.35,277.81,0.33,351.09-155.61c31.81-67.69,16.56-135.73,0.5-207.44c-15.46-69-51.05-227.89-180.95-306.93
				C2954.64,912.52,2654.06,1000.32,2561.4,1200.61z"/>
			<linearGradient id="SVGID_15_" gradientUnits="userSpaceOnUse" x1="2491.6416" y1="1610.01" x2="2894.7715" y2="1252.6907">
				<stop  offset="0" style="stop-color:#311944"/>
				<stop  offset="1" style="stop-color:#A03976"/>
			</linearGradient>
			<circle class="st18" cx="2870.34" cy="1274.35" r="39.15"/>
			<linearGradient id="SVGID_16_" gradientUnits="userSpaceOnUse" x1="2585.2639" y1="1715.6361" x2="2988.3945" y2="1358.316">
				<stop  offset="0" style="stop-color:#311944"/>
				<stop  offset="1" style="stop-color:#A03976"/>
			</linearGradient>
			<ellipse class="st19" cx="3119.03" cy="1242.53" rx="29.77" ry="39.15"/>
			<g>
				<linearGradient id="SVGID_17_" gradientUnits="userSpaceOnUse" x1="2889.0149" y1="1812.4861" x2="2971.4731" y2="1649.8595">
					<stop  offset="0" style="stop-color:#FFC444"/>
					<stop  offset="0.9964" style="stop-color:#F36F56"/>
				</linearGradient>
				<path class="st20" d="M2972.45,1306.12c-25.43,22.84-27.33,57.99-27.49,61.84c-1.47,36.77,21.68,70.28,40.37,83.32
					c92.05,64.24,370.37-162.46,357.32-185.53c-5.51-9.74-54.1,32.44-153.68,38.5C3078.63,1310.96,3016.46,1266.59,2972.45,1306.12z
					"/>
				<linearGradient id="SVGID_18_" gradientUnits="userSpaceOnUse" x1="2944.8938" y1="1367.6492" x2="3341.6675" y2="1367.6492">
					<stop  offset="0" style="stop-color:#FFC444"/>
					<stop  offset="0.9964" style="stop-color:#F36F56"/>
				</linearGradient>
				<path class="st21" d="M3191.48,1325.88c-24.18,15.96-27.85,36.66-46.38,37.79c-18.96,1.16-23.28-20.01-46.38-29.2
					c-44.84-17.85-94.1,35.81-109.09,23.19c-6.39-5.38-5.91-22.32,15.69-67c-12.1,1.93-22.95,6.55-32.86,15.46
					c-25.43,22.84-27.33,57.99-27.49,61.84c-1.47,36.77,21.68,70.28,40.37,83.32c86.14,60.12,335.37-134.53,356.34-178.69
					c-27.2,26.31-51.85,35.87-71.81,38.71C3243.26,1315.09,3218.84,1307.81,3191.48,1325.88z"/>
			</g>
			<g>
				<linearGradient id="SVGID_19_" gradientUnits="userSpaceOnUse" x1="2542.948" y1="1656.922" x2="2946.0771" y2="1299.6034">
					<stop  offset="0" style="stop-color:#311944"/>
					<stop  offset="1" style="stop-color:#A03976"/>
				</linearGradient>
				<path class="st22" d="M2808.97,1437.75c0,10.35-8.39,18.75-18.75,18.75c-10.35,0-18.75-8.39-18.75-18.75
					c0-10.35,8.39-18.75,18.75-18.75C2800.58,1419,2808.97,1427.39,2808.97,1437.75z"/>
				<linearGradient id="SVGID_20_" gradientUnits="userSpaceOnUse" x1="2598.1445" y1="1719.1958" x2="3001.2766" y2="1361.8744">
					<stop  offset="0" style="stop-color:#311944"/>
					<stop  offset="1" style="stop-color:#A03976"/>
				</linearGradient>
				<path class="st23" d="M2855,1510.19c0,11.63-9.43,21.05-21.05,21.05c-11.63,0-21.05-9.42-21.05-21.05s9.43-21.05,21.05-21.05
					C2845.57,1489.14,2855,1498.56,2855,1510.19z"/>
				<linearGradient id="SVGID_21_" gradientUnits="userSpaceOnUse" x1="2652.5696" y1="1780.5988" x2="3055.7019" y2="1423.2771">
					<stop  offset="0" style="stop-color:#311944"/>
					<stop  offset="1" style="stop-color:#A03976"/>
				</linearGradient>
				<circle class="st24" cx="2912.17" cy="1550.5" r="24.44"/>
				<linearGradient id="SVGID_22_" gradientUnits="userSpaceOnUse" x1="2699.3809" y1="1833.4093" x2="3102.5112" y2="1476.0895">
					<stop  offset="0" style="stop-color:#311944"/>
					<stop  offset="1" style="stop-color:#A03976"/>
				</linearGradient>
				<circle class="st25" cx="3005.17" cy="1562.37" r="21.7"/>
				<linearGradient id="SVGID_23_" gradientUnits="userSpaceOnUse" x1="2727.2478" y1="1864.85" x2="3130.3804" y2="1507.528">
					<stop  offset="0" style="stop-color:#311944"/>
					<stop  offset="1" style="stop-color:#A03976"/>
				</linearGradient>
				<path class="st26" d="M3096,1555.36c0,10.82-8.77,19.58-19.58,19.58c-10.82,0-19.58-8.77-19.58-19.58
					c0-10.82,8.77-19.58,19.58-19.58C3087.24,1535.77,3096,1544.54,3096,1555.36z"/>
				<linearGradient id="SVGID_24_" gradientUnits="userSpaceOnUse" x1="2737.6479" y1="1876.5845" x2="3140.7783" y2="1519.2645">
					<stop  offset="0" style="stop-color:#311944"/>
					<stop  offset="1" style="stop-color:#A03976"/>
				</linearGradient>
				<path class="st27" d="M3136.42,1533.65c0,6.56-5.32,11.88-11.88,11.88c-6.56,0-11.88-5.32-11.88-11.88
					c0-6.56,5.32-11.88,11.88-11.88C3131.1,1521.78,3136.42,1527.09,3136.42,1533.65z"/>
				<linearGradient id="SVGID_25_" gradientUnits="userSpaceOnUse" x1="2734.8298" y1="1873.4076" x2="3137.9612" y2="1516.0868">
					<stop  offset="0" style="stop-color:#311944"/>
					<stop  offset="1" style="stop-color:#A03976"/>
				</linearGradient>
				<circle class="st28" cx="3154.71" cy="1501.24" r="5.96"/>
			</g>
			<linearGradient id="SVGID_26_" gradientUnits="userSpaceOnUse" x1="1854.7488" y1="644.4282" x2="2180.6077" y2="644.4282">
				<stop  offset="0" style="stop-color:#F4F7FA"/>
				<stop  offset="1" style="stop-color:#D8DEE8"/>
			</linearGradient>
			<path class="st29" d="M2178.58,667.54c10.88-43.1-23.51-98.61-65.93-113c-32.35-10.97-47.5,9.37-109.94,18.9
				c-90.18,13.76-135.56-16.92-146.02,1.72c-13.44,23.95,45.33,103.5,113.38,109.94c42.08,3.99,78.49-20.85,82.46-13.74
				c5.09,9.12-58.42,43.78-53.25,56.69C2006.54,746.25,2159.29,743.98,2178.58,667.54z"/>
			<linearGradient id="SVGID_27_" gradientUnits="userSpaceOnUse" x1="2144.905" y1="978.9409" x2="3243.8958" y2="978.9409">
				<stop  offset="3.597120e-03" style="stop-color:#6165D7"/>
				<stop  offset="1" style="stop-color:#AA80F9"/>
			</linearGradient>
			<path class="st30" d="M2518.07,1274.34c-43.06-46-53.36-104.48-56.69-128.84c-13-95,19.19-115.23-2.29-154.41
				c-25.13-45.84-77.55-33.46-147.17-68.91c-120.72-61.47-190.67-214.57-159.69-252.7c19.78-24.34,73.99,6.44,174.81,30.28
				c274.84,65.02,354.12-49.68,556.94,26.58c120.25,45.21,195.56,124.33,245.66,176.94c13.39,14.06,137.52,145.79,110.4,182.93
				c-22.99,31.48-115.47-58.58-259.86-43.78c-100.04,10.26-269.98,75.47-345.29,187.25c-12.44,18.46-44.45,71.07-81.08,67.46
				C2545.53,1296.32,2535.01,1292.44,2518.07,1274.34z"/>
			<linearGradient id="SVGID_28_" gradientUnits="userSpaceOnUse" x1="2144.905" y1="978.9422" x2="3243.8909" y2="978.9422">
				<stop  offset="3.597120e-03" style="stop-color:#6165D7"/>
				<stop  offset="1" style="stop-color:#AA80F9"/>
			</linearGradient>
			<path class="st31" d="M2975.02,894.69c-163.77-7.45-299.68,140.36-357.32,91.05c-47.21-40.39,29.29-152.11-22.33-204.43
				c-70.04-71-271.74,73.01-347.01,1.72c-26.25-24.86-28.88-68.1-22.67-111.82c-38.13-11.26-61.79-16.09-73.46-1.73
				c-30.98,38.13,38.97,191.23,159.69,252.7c69.62,35.45,122.04,23.08,147.17,68.91c21.48,39.19-10.71,59.42,2.29,154.41
				c3.33,24.36,13.63,82.84,56.69,128.84c16.95,18.11,27.46,21.98,35.73,22.8c36.64,3.61,68.64-49,81.08-67.46
				c75.31-111.78,245.25-176.99,345.29-187.25c144.39-14.8,236.87,75.26,259.86,43.78c7.01-9.6,3.9-25.53-4.77-44.1
				C3132.05,928.23,3042.81,897.77,2975.02,894.69z"/>
		</g>
		<g>
			<linearGradient id="SVGID_29_" gradientUnits="userSpaceOnUse" x1="3834.918" y1="2542.9685" x2="3546.313" y2="2978.166">
				<stop  offset="0" style="stop-color:#FF9085"/>
				<stop  offset="1" style="stop-color:#FB6FBB"/>
			</linearGradient>
			<path class="st32" d="M3942.53,3110.08c0.1-0.78,0.17-1.56,0.17-2.34c0-2.53-0.56-5.02-1.63-7.49l-86.34-582.87h-488.92
				c0,0-70.61,494.24-85.42,581.02c-1.67,3.06-2.54,6.18-2.54,9.34c0,0.93,0.1,1.85,0.25,2.77c-0.1,0.38-0.18,0.64-0.25,0.75h0.37
				c8.13,39.98,153.68,71.82,332.06,71.82c178.38,0,323.93-31.84,332.06-71.82h0.37L3942.53,3110.08z"/>
			<linearGradient id="SVGID_30_" gradientUnits="userSpaceOnUse" x1="3277.8445" y1="2850.2285" x2="3734.2876" y2="2850.2285">
				<stop  offset="0" style="stop-color:#FF9085"/>
				<stop  offset="1" style="stop-color:#FB6FBB"/>
			</linearGradient>
			<path class="st33" d="M3732.61,2933.82c-19.22-128.33-178.18-145.66-206.15-259.4c-9-36.63-5.38-87.41,38.72-157.04h-199.37
				c0,0-70.61,494.24-85.42,581.02c-1.67,3.06-2.54,6.18-2.54,9.34c0,0.93,0.1,1.85,0.25,2.77c-0.1,0.38-0.18,0.64-0.25,0.75h0.37
				c8.13,39.98,153.68,71.82,332.06,71.82c43.1,0,84.27-1.86,122.06-5.25c-11.3-19.35-19.69-40.53-23.78-63.64
				C3694.64,3035.42,3743.82,3008.67,3732.61,2933.82z"/>
			<linearGradient id="SVGID_31_" gradientUnits="userSpaceOnUse" x1="3087.5288" y1="2517.3726" x2="3576.4526" y2="2517.3726">
				<stop  offset="0" style="stop-color:#311944"/>
				<stop  offset="1" style="stop-color:#A03976"/>
			</linearGradient>
			<ellipse class="st34" cx="3610.27" cy="2517.37" rx="244.46" ry="36.66"/>
			<linearGradient id="SVGID_32_" gradientUnits="userSpaceOnUse" x1="3932.2073" y1="2893.3003" x2="3087.0508" y2="3918.8269">
				<stop  offset="0" style="stop-color:#444B8C"/>
				<stop  offset="0.9964" style="stop-color:#26264F"/>
			</linearGradient>
			<path class="st35" d="M3815.38,3249.47c-177.59,0-406.94-68.24-419.24-71.94c-6.36-1.91-9.96-8.62-8.05-14.98
				c1.91-6.36,8.62-9.97,14.98-8.05c3.78,1.14,380.04,113.1,535.32,53.35c27.67-10.65,60.93-28.26,62.26-51.71
				c1.75-30.96-49.6-64.7-69.54-75.09c-5.89-3.07-8.18-10.33-5.11-16.22c3.06-5.89,10.31-8.18,16.21-5.12
				c8.75,4.54,85.36,45.88,82.46,97.76c-1.63,29.13-27.75,53.63-77.63,72.83C3911.24,3244.07,3865.36,3249.47,3815.38,3249.47z"/>
		</g>
		<g>
			
				<linearGradient id="SVGID_33_" gradientUnits="userSpaceOnUse" x1="-2433.9343" y1="1908.246" x2="-2392.8882" y2="1908.246" gradientTransform="matrix(1 0 0 1 4922.1812 0)">
				<stop  offset="0" style="stop-color:#311944"/>
				<stop  offset="1" style="stop-color:#893976"/>
			</linearGradient>
			<path class="st36" d="M2488.25,1932.37c0,0,9.77-1.36,6.72-20.02c-2.39-14.63-0.58-19.55,2.87-16.95
				c3.45,2.59,3.94,11.04,3.94,11.04s12.59-10.74,17.78-24.82c5.19-14.07,8.52-2.22,9.63,4.81c1.11,7.04-7.41,28.89-12.22,32.97
				c-4.81,4.07-11.85,22.03-11.85,22.03L2488.25,1932.37z"/>
			
				<linearGradient id="SVGID_34_" gradientUnits="userSpaceOnUse" x1="-2480.2725" y1="2082.3237" x2="-2455.5564" y2="2082.3237" gradientTransform="matrix(1 0 0 1 4922.1812 0)">
				<stop  offset="0" style="stop-color:#311944"/>
				<stop  offset="1" style="stop-color:#893976"/>
			</linearGradient>
			<polygon class="st37" points="2454.75,2111.4 2441.91,2086.83 2441.91,2053.24 2466.63,2111.4 			"/>
			
				<linearGradient id="SVGID_35_" gradientUnits="userSpaceOnUse" x1="6251.8618" y1="2972.4509" x2="6267.9453" y2="3177.1511" gradientTransform="matrix(-1 0 0 1 8383.1172 0)">
				<stop  offset="0" style="stop-color:#311944"/>
				<stop  offset="1" style="stop-color:#A03976"/>
			</linearGradient>
			<path class="st38" d="M2099.89,3074.54c0,0,64.74,29.43,65.8,34.12c1.06,4.7-41.64-1.57-59.07-0.9
				c-17.43,0.68-31.77-4.47-30.19-11.86c1.58-7.38,7.68-25.95,7.68-25.95L2099.89,3074.54z"/>
			
				<linearGradient id="SVGID_36_" gradientUnits="userSpaceOnUse" x1="6293.3833" y1="3086.4146" x2="6290.4595" y2="2874.4045" gradientTransform="matrix(-1 0 0 1 8383.1172 0)">
				<stop  offset="0" style="stop-color:#FFC444"/>
				<stop  offset="0.9964" style="stop-color:#F36F56"/>
			</linearGradient>
			<path class="st39" d="M2102.26,3050.66l-3.94,29.15c0,0-10.25,3.65-17.14-0.67l-2.94-31.97L2102.26,3050.66z"/>
			
				<linearGradient id="SVGID_37_" gradientUnits="userSpaceOnUse" x1="6555.8066" y1="2948.5701" x2="6571.8906" y2="3153.2698" gradientTransform="matrix(-1 0 0 1 8383.1172 0)">
				<stop  offset="0" style="stop-color:#311944"/>
				<stop  offset="1" style="stop-color:#A03976"/>
			</linearGradient>
			<path class="st40" d="M1797.35,3051.36l-7.53,12.09c-2.11,3.38-2.73,7.45-1.72,11.3c2.63,10.05,7.89,29.65,10.19,34.75
				c3.12,6.96,45.02,11.09,45.02,11.09s3.74-5.26-4.96-11.61c-8.7-6.35-14.29-7.35-17.36-16.72c-3.07-9.37-5.12-35.88-5.12-35.88
				L1797.35,3051.36z"/>
			
				<linearGradient id="SVGID_38_" gradientUnits="userSpaceOnUse" x1="6571.936" y1="3082.5732" x2="6569.0117" y2="2870.5574" gradientTransform="matrix(-1 0 0 1 8383.1172 0)">
				<stop  offset="0" style="stop-color:#FFC444"/>
				<stop  offset="0.9964" style="stop-color:#F36F56"/>
			</linearGradient>
			<path class="st41" d="M1828.7,3020.64c-2.75,2.19-16.21,43.04-16.21,43.04s-4.36,5.57-12.63-2.65c-8.27-8.22-3.74-3.69-3.74-3.69
				l1.55-40.17L1828.7,3020.64z"/>
			
				<linearGradient id="SVGID_39_" gradientUnits="userSpaceOnUse" x1="6242.7866" y1="2742.9629" x2="6399.542" y2="2742.9629" gradientTransform="matrix(-1 0 0 1 8383.1172 0)">
				<stop  offset="0" style="stop-color:#444B8C"/>
				<stop  offset="0.9964" style="stop-color:#3E4177"/>
			</linearGradient>
			<path class="st42" d="M2137.88,2465.02c3.42,86.95,3.55,181.42-1.45,282.35c-5.63,113.65-16.95,218.69-31.22,313.91
				c-5.3,0.17-10.88,0.2-16.7,0.03c-3.93-0.11-7.74-0.3-11.42-0.55c-7.4-19.74-16.15-45.71-23.99-76.72
				c-8.24-32.61-13.21-61.86-16.75-89.83c-12.47-98.49,2.14-107.08-7.97-180.07c-8.96-64.64-21.7-67.17-36.66-158.94
				c-16.23-99.58-4.15-114.52,1.73-119.92C2018.45,2412.29,2077.21,2427.93,2137.88,2465.02z"/>
			
				<linearGradient id="SVGID_40_" gradientUnits="userSpaceOnUse" x1="6242.7861" y1="2742.9695" x2="6399.5405" y2="2742.9695" gradientTransform="matrix(-1 0 0 1 8383.1172 0)">
				<stop  offset="0" style="stop-color:#444B8C"/>
				<stop  offset="0.9964" style="stop-color:#3E4177"/>
			</linearGradient>
			<path class="st43" d="M1993.44,2435.27c23.86-21.92,78.42-8.65,136.05,24.8c-66.3,71.63-73.52,118.09-65.58,148.24
				c8.98,34.08,36.29,43.89,36.19,81.15c-0.13,45.79-41.45,57.92-40.57,106.37c0.58,32.04,18.74,31.71,23.03,71.28
				c5.07,46.82-18.65,62.96-10.97,97.6c3.31,14.9,12.74,34.38,39.61,54.44c-1.94,14.23-3.92,28.31-5.99,42.13
				c-5.3,0.17-10.88,0.2-16.7,0.03c-3.93-0.11-7.74-0.3-11.42-0.55c-7.4-19.74-16.16-45.71-23.99-76.72
				c-8.24-32.61-13.21-61.86-16.75-89.83c-12.47-98.49,2.14-107.08-7.97-180.07c-8.96-64.64-21.7-67.17-36.66-158.94
				C1975.48,2455.6,1987.56,2440.66,1993.44,2435.27z"/>
			
				<linearGradient id="SVGID_41_" gradientUnits="userSpaceOnUse" x1="6286.3047" y1="2727.5112" x2="6601.8696" y2="2727.5112" gradientTransform="matrix(-1 0 0 1 8383.1172 0)">
				<stop  offset="0" style="stop-color:#444B8C"/>
				<stop  offset="0.9964" style="stop-color:#3E4177"/>
			</linearGradient>
			<path class="st44" d="M2096.81,2463.56c-57.08,83.53-118.66,187.48-173.72,311.91c-41.61,94.03-71.79,182.32-93.95,261
				c-3,1.39-10.07,4.16-19.11,2.96c-12.33-1.63-19.72-9.5-21.65-11.7c-9.02-56.4-8.02-104.17-4.96-138.65
				c1.96-22.07,5.43-58.83,19.5-104.21c15.76-50.83,26.59-53.69,47.15-107.47c21.34-55.82,16.17-69.75,36.61-139.61
				c8.39-28.7,22.45-71.4,45.64-122.48C1987.15,2431.39,2041.98,2447.47,2096.81,2463.56z"/>
			
				<linearGradient id="SVGID_42_" gradientUnits="userSpaceOnUse" x1="-2806.4001" y1="2023.9915" x2="-2788.6213" y2="2163.26" gradientTransform="matrix(1 0 0 1 4922.1812 0)">
				<stop  offset="0" style="stop-color:#311944"/>
				<stop  offset="1" style="stop-color:#893976"/>
			</linearGradient>
			<path class="st45" d="M2118.19,1991.24c0,0-1.86,24.46-10.03,42.56c-7.38,16.36-43.84,25.66-51.28,29.13
				c-7.44,3.47,13.27,14.94,34.34,17.72c21.07,2.78,81.58-0.15,92.71-7.82c11.13-7.67-8.51-7.68-23.43-13.69
				c-14.92-6.01-22.72-35.78-19.65-49.09C2143.93,1996.74,2118.19,1991.24,2118.19,1991.24z"/>
			<g>
				
					<linearGradient id="SVGID_43_" gradientUnits="userSpaceOnUse" x1="-2796.3284" y1="1996.8181" x2="-2804.23" y2="1901.9974" gradientTransform="matrix(1 0 0 1 4922.1812 0)">
					<stop  offset="3.597000e-03" style="stop-color:#26264F"/>
					<stop  offset="1" style="stop-color:#444B8C"/>
				</linearGradient>
				<path class="st46" d="M2148.6,1972.55c11.1-14.73,6.37-43.65-3.53-47.36c-2.83-1.06-4.75,0.44-32.98,23.55
					c-14.02,11.48-20.84,17.39-21.21,25.29c-0.23,4.82,1.87,10.59,5.07,14.64c1.65,2.09,4.33,4.48,10.01,8.88
					c5.04,3.9,4.75,3.81,6.27,4.93c3.65,2.68,10.43,7.01,21.6,10.98c-0.3-2.71-0.5-6.11-0.25-9.98c0.1-1.49,0.53-7.32,2.43-12.71
					C2139.28,1981.48,2145,1977.33,2148.6,1972.55z"/>
				
					<linearGradient id="SVGID_44_" gradientUnits="userSpaceOnUse" x1="-2845.4731" y1="1935.2211" x2="-2772.3821" y2="2012.2629" gradientTransform="matrix(1 0 0 1 4922.1812 0)">
					<stop  offset="0" style="stop-color:#311944"/>
					<stop  offset="1" style="stop-color:#893976"/>
				</linearGradient>
				<path class="st47" d="M2120.18,2010.39c0,0,13.75,11.01,30.51,3.67c15-6.58,4.75-41.85-7.72-45.6
					c-4.16-1.25-11.08,0.12-15.88,3.55c-2.83,2.03-3.42,3.72-8.11,6.94c-4.32,2.97-5.86,2.93-6.86,4.67
					c-1.25,2.17-1.22,6.37,5.44,15.35c-4.01-1.91-7.94-1.77-10.01,0.32c-0.33,0.33-1.12,1.43-1.32,2.74
					C2105.51,2006.73,2110.93,2010.45,2120.18,2010.39z"/>
			</g>
			
				<linearGradient id="SVGID_45_" gradientUnits="userSpaceOnUse" x1="-2816.0989" y1="2286.8359" x2="-2389.4038" y2="1966.8147" gradientTransform="matrix(1 0 0 1 4922.1812 0)">
				<stop  offset="3.597120e-03" style="stop-color:#6165D7"/>
				<stop  offset="1" style="stop-color:#AA80F9"/>
			</linearGradient>
			<path class="st48" d="M2162.08,2085.59c54.57-19.62,95.09,68.71,177.67,56.4c54.99-8.2,93.48-55.79,120.46-37.9
				c8.78,5.82,12.36,15.93,14.01,23.08c-10.42,25.73-38.53,84.64-101.46,119.67c-92.16,51.3-231.89,36.26-260.76-31.11
				C2093.09,2171.56,2120.01,2100.72,2162.08,2085.59z"/>
			
				<linearGradient id="SVGID_46_" gradientUnits="userSpaceOnUse" x1="-2692.6907" y1="2675.2014" x2="-2759.2078" y2="2035.4617" gradientTransform="matrix(1 0 0 1 4922.1812 0)">
				<stop  offset="3.597120e-03" style="stop-color:#6165D7"/>
				<stop  offset="1" style="stop-color:#AA80F9"/>
			</linearGradient>
			<path class="st49" d="M1864.59,2494.26c23.82,21.57,65.07,23.32,74.08,23.71c42.39,1.8,48.44-16.6,90.38-14.82
				c42.06,1.79,53.15,21.01,82.97,13.33c5.28-1.36,25.92-7.36,47.85-36.02c62.15-81.22,10.2-170.59,72.16-285.48
				c9.34-17.32,17.55-32.55,34.08-48.89c53.47-52.88,104.45-28.83,171.83-71.26c55.28-34.81,92.38-104.78,76.33-136.33
				c-7.27-14.3-13.57-12.41-23.33-13.56c-16.41,27.82-57.02,61.76-103.73,81.51c-44.32,18.75-78.47,9.79-146.29,10.74
				c-41.45,0.58-112.6,1.58-169.03,21.78c-141.09,50.51-193.33,222.27-208.78,273.06
				C1849.6,2356.42,1820.04,2453.92,1864.59,2494.26z"/>
			
				<linearGradient id="SVGID_47_" gradientUnits="userSpaceOnUse" x1="-2896.2622" y1="2698.0256" x2="-2963.4268" y2="2052.0576" gradientTransform="matrix(1 0 0 1 4922.1812 0)">
				<stop  offset="0" style="stop-color:#AA80F9"/>
				<stop  offset="0.9964" style="stop-color:#6165D7"/>
			</linearGradient>
			<path class="st50" d="M1980.15,2455.25c-15.38-19.84,63.99-74.51,53.34-138.28c-8.97-53.7-72.62-59.06-88.9-108.65
				c-7.03-21.42-5.71-52.62,24.22-99.04c-65.62,71.17-94.82,166.97-105.7,202.75c-13.5,44.39-43.06,141.89,1.48,182.23
				c23.82,21.57,65.07,23.32,74.08,23.71c42.39,1.8,48.44-16.6,90.38-14.82c42.06,1.79,53.15,21.01,82.97,13.33
				c5.28-1.36,25.92-7.36,47.85-36.02c0.33-0.43,0.6-0.86,0.93-1.29c-16.56-15.78-36.42-28.51-60.14-33.81
				C2042.24,2432.31,1992.61,2471.32,1980.15,2455.25z"/>
			<g>
				
					<linearGradient id="SVGID_48_" gradientUnits="userSpaceOnUse" x1="2388.8684" y1="2055.9333" x2="2420.051" y2="2055.9333" gradientTransform="matrix(0.6384 -0.7697 0.7697 0.6384 -1056.8887 2442.0046)">
					<stop  offset="0" style="stop-color:#AA80F9"/>
					<stop  offset="0.9964" style="stop-color:#6165D7"/>
				</linearGradient>
				<path class="st51" d="M2065.94,1920.11c-1.03,0.55-18.3-1.46-22.66-13.08c-4.36-11.62,6.9-3.09,8.4-7.2
					c1.49-4.11,0.61-11.13,9.75-6.66c9.14,4.48,9.04,6.47,13.55,3.42C2079.48,1893.54,2074.38,1915.65,2065.94,1920.11z"/>
				
					<linearGradient id="SVGID_49_" gradientUnits="userSpaceOnUse" x1="2390.8694" y1="2071.9834" x2="2401.0293" y2="2166.5967" gradientTransform="matrix(0.6384 -0.7697 0.7697 0.6384 -1056.8887 2442.0046)">
					<stop  offset="0" style="stop-color:#AB316D"/>
					<stop  offset="1" style="stop-color:#792D3D"/>
				</linearGradient>
				<path class="st52" d="M2080.5,1973.57c-5.1-5.18-13.03-14.61-17.65-28.47c-1.36-4.07-8.91-27.96-0.12-34.21
					c3.66-2.6,7.09,0.02,23.24,3.44c21.58,4.57,27.94,2.53,30,6.98c1.62,3.51-0.85,7.99-18.22,30.41
					C2091,1960.44,2085.11,1967.84,2080.5,1973.57z"/>
				
					<linearGradient id="SVGID_50_" gradientUnits="userSpaceOnUse" x1="2353.4712" y1="2117.7026" x2="2436.501" y2="2117.7026" gradientTransform="matrix(0.6384 -0.7697 0.7697 0.6384 -1056.8887 2442.0046)">
					<stop  offset="0" style="stop-color:#AA80F9"/>
					<stop  offset="0.9964" style="stop-color:#6165D7"/>
				</linearGradient>
				<path class="st53" d="M2096.66,1989.83c-4.5,3.06-13,0.46-17.42-4.53c-6.58-7.43-3.34-19.23-1.33-26.53
					c4.44-16.13,18.6-44.55,38.3-43.76c12.3,0.49,24.53,12.28,23.11,19.17c-0.8,3.92-5.51,3.78-15.46,10.19
					c-7.17,4.62-17.96,11.58-22.48,22.88C2096.85,1978.58,2101.84,1986.3,2096.66,1989.83z"/>
			</g>
			<linearGradient id="SVGID_51_" gradientUnits="userSpaceOnUse" x1="2020.3016" y1="2040.4042" x2="2195.999" y2="2040.4042">
				<stop  offset="0" style="stop-color:#FF9085"/>
				<stop  offset="1" style="stop-color:#FB6FBB"/>
			</linearGradient>
			<path class="st54" d="M2029.61,2071.44c0,0-23.73-23.21,4.58-42.37c28.32-19.16,76.57,5.56,101.85-5.24
				c25.28-10.79,39.41-18.58,51.15-12.08C2198.93,2018.24,2228.89,2068,2029.61,2071.44z"/>
		</g>
		<g>
			
				<linearGradient id="SVGID_52_" gradientUnits="userSpaceOnUse" x1="-2033.1219" y1="1613.0898" x2="-1677.8583" y2="1613.0898" gradientTransform="matrix(-1 0 0 1 1869.0021 0)">
				<stop  offset="0" style="stop-color:#444B8C"/>
				<stop  offset="0.9964" style="stop-color:#26264F"/>
			</linearGradient>
			<path class="st55" d="M3549.17,1450.62c-2.87-21.58-4.47-34.92,3.87-45.49c18.65-23.65,76.6-20.32,110.33,7.74
				c24.94,20.74,16.05,37.88,39.08,55.61c33.12,25.5,63.44-2.52,111.9,16c38.29,14.64,81.45,52.29,87.1,103.55
				c2.99,27.07-3.31,68.62-31.94,89.56c-40.09,29.33-97.77-0.9-106.51,17.28c-9.22,19.18,55.38,51.95,48.65,90.51
				c-4.78,27.39-43.06,43.41-65.04,48.47c-52.72,12.13-116.3-14.69-149.04-60.97c-35.61-50.33,1.92-71.86-30-196.46
				C3564.16,1563.14,3559.16,1525.64,3549.17,1450.62z"/>
			
				<linearGradient id="SVGID_53_" gradientUnits="userSpaceOnUse" x1="-1628.4275" y1="2503.7771" x2="-1539.9741" y2="2503.7771" gradientTransform="matrix(-1 0 0 1 1869.0021 0)">
				<stop  offset="0" style="stop-color:#444B8C"/>
				<stop  offset="0.9964" style="stop-color:#26264F"/>
			</linearGradient>
			<path class="st56" d="M3491.72,2484.1c0,0,4.6,10.25,5.63,19.39c0.83,7.37-4.47,14.02-11.84,14.86
				c-18.05,2.07-50.61,5.41-70.28,5.08c-24.97-0.42,32.08-30.69,45.89-37.83c1.91-0.99,4.02-1.5,6.17-1.5H3491.72z"/>
			
				<linearGradient id="SVGID_54_" gradientUnits="userSpaceOnUse" x1="-1565.2513" y1="2341.4761" x2="-1603.6737" y2="2459.0715" gradientTransform="matrix(-1 0 0 1 1869.0021 0)">
				<stop  offset="0" style="stop-color:#311944"/>
				<stop  offset="1" style="stop-color:#A03976"/>
			</linearGradient>
			<path class="st57" d="M3484.34,2450.72c2.65,1.11,3.8,36.9,3.8,36.9s-11.64,6.89-19.34,2.43l-15.31-44.64L3484.34,2450.72z"/>
			
				<linearGradient id="SVGID_55_" gradientUnits="userSpaceOnUse" x1="-1950.9209" y1="2471.8997" x2="-1891.749" y2="2471.8997" gradientTransform="matrix(-1 0 0 1 1869.0021 0)">
				<stop  offset="0" style="stop-color:#444B8C"/>
				<stop  offset="0.9964" style="stop-color:#26264F"/>
			</linearGradient>
			<path class="st58" d="M3811.07,2441.9c7.44,4.23,10.74,13.22,7.77,21.25c-4.61,12.48-12.03,30.11-20.01,39.39
				c-8.6,9.99-23.81,10.07-33.35,8.92c-4.02-0.49-6.06-5.09-3.76-8.42c4.64-6.72,11.42-16.87,14.6-23.27
				c5.1-10.24,17.08-47.92,17.08-47.92L3811.07,2441.9z"/>
			
				<linearGradient id="SVGID_56_" gradientUnits="userSpaceOnUse" x1="-1852.4313" y1="2247.646" x2="-1890.8533" y2="2365.2407" gradientTransform="matrix(-1 0 0 1 1869.0021 0)">
				<stop  offset="0" style="stop-color:#311944"/>
				<stop  offset="1" style="stop-color:#A03976"/>
			</linearGradient>
			<path class="st59" d="M3780.7,2406.09l18.92,29.95c1.75,2.76,1.28,6.38-1.11,8.61l0,0c-2.65,2.48-6.77,2.44-9.38-0.08
				l-29.51-28.5L3780.7,2406.09z"/>
			
				<linearGradient id="SVGID_57_" gradientUnits="userSpaceOnUse" x1="-1545.7378" y1="2476.5688" x2="-1593.5061" y2="2012.2645" gradientTransform="matrix(-1 0 0 1 1869.0021 0)">
				<stop  offset="0" style="stop-color:#444B8C"/>
				<stop  offset="0.9964" style="stop-color:#26264F"/>
			</linearGradient>
			<path class="st60" d="M3436.37,1832.22c-67.35,32.55-55.59,184.59-44.98,321.74c6.7,86.56,21.8,192.43,54.53,311.66
				c17.2,0.64,34.39,1.27,51.59,1.91c5.79-31.16,12.22-77.53,11.46-133.75c-1.18-87.97-19.14-138.72-25.79-185.34
				c-9.26-64.89-2.07-159.81,74.52-287.56C3491.34,1818.32,3455.46,1823,3436.37,1832.22z"/>
			
				<linearGradient id="SVGID_58_" gradientUnits="userSpaceOnUse" x1="-1551.9642" y1="2477.2095" x2="-1599.7324" y2="2012.9052" gradientTransform="matrix(-1 0 0 1 1869.0021 0)">
				<stop  offset="0" style="stop-color:#444B8C"/>
				<stop  offset="0.9964" style="stop-color:#26264F"/>
			</linearGradient>
			<path class="st61" d="M3480.32,2307.03c-17.6-67.94-45.35-89.93-47.77-163.37c-2.46-74.6,24.53-101.55,17.2-168.14
				c-5.11-46.37-23.85-84.59-43.32-113.5c7.58-13.51,17.38-23.73,29.94-29.8c19.09-9.23,54.97-13.9,121.33,28.66
				c-76.58,127.75-83.78,222.67-74.52,287.56c6.66,46.62,24.61,97.38,25.79,185.34c0.76,56.22-5.67,102.59-11.46,133.75
				c-3.95-0.15-7.9-0.29-11.84-0.44C3496.79,2399.24,3490.5,2346.36,3480.32,2307.03z"/>
			
				<linearGradient id="SVGID_59_" gradientUnits="userSpaceOnUse" x1="-1724.8026" y1="2494.9912" x2="-1772.5709" y2="2030.6869" gradientTransform="matrix(-1 0 0 1 1869.0021 0)">
				<stop  offset="0" style="stop-color:#444B8C"/>
				<stop  offset="0.9964" style="stop-color:#26264F"/>
			</linearGradient>
			<path class="st62" d="M3619.8,1837c2.94,36.6,6.75,82.21,11.46,134.71c10.83,120.58,14.17,140.87,24.84,168.14
				c20.55,52.52,40.48,59.9,77.38,123.24c34.71,59.56,52.52,113.82,62.1,149.99c-10.83,8.92-21.65,17.83-32.48,26.75
				c-52.23-45.59-120.79-116.18-179.79-216.6c-85.78-146.02-109.74-284.32-117.33-365.22C3517.26,1851.01,3568.53,1844,3619.8,1837z
				"/>
			
				<linearGradient id="SVGID_60_" gradientUnits="userSpaceOnUse" x1="-1452.5381" y1="1477.7493" x2="-1837.72" y2="2087.459" gradientTransform="matrix(-1 0 0 1 1869.0021 0)">
				<stop  offset="0" style="stop-color:#FFC444"/>
				<stop  offset="0.9964" style="stop-color:#F36F56"/>
			</linearGradient>
			<path class="st63" d="M3618.17,1539.2c22.93,18.46,22.93,53.21,22.94,88.53c0.01,37.9-7.83,56.42-12.77,84.29
				c-2.66,15.02-15.76,96.48,17.6,164.43c31.9,64.98,78.78,61.58,100.21,129.59c10.38,32.93,12.69,75.99-3.43,84.3
				c-18.07,9.32-40.52-34.7-99.78-54.81c-52.19-17.7-56.49,9.07-114.1-6.16c-60.12-15.89-63.75-47.25-148.07-76.46
				c-17-5.89-23.6-6.95-29.03-14.52c-21.69-30.21,37.73-77.1,65.47-170.12c26.96-90.4-3.41-132.42,40.98-184.09
				c22.46-26.15,49.33-37.6,59.04-41.61C3532.9,1536.09,3586.68,1513.84,3618.17,1539.2z"/>
			<g class="st64">
				
					<linearGradient id="SVGID_61_" gradientUnits="userSpaceOnUse" x1="-1444.7319" y1="1482.6805" x2="-1829.9128" y2="2092.3887" gradientTransform="matrix(-1 0 0 1 1869.0021 0)">
					<stop  offset="0" style="stop-color:#FFC444"/>
					<stop  offset="0.9964" style="stop-color:#F36F56"/>
				</linearGradient>
				<path class="st65" d="M3417.22,1768.27c26.96-90.4-3.41-132.42,40.98-184.09c22.46-26.15,49.33-37.6,59.04-41.61
					c11.91-4.92,45.84-18.94,75.27-14.24c-11.96,15.54-24.73,33.52-37.53,53.92c-36.69,58.52-55.03,87.78-58.07,123.88
					c-6.37,75.72,50.82,101.72,34.84,166.46c-11.1,44.96-42.79,49.08-48.39,83.23c-2.82,17.2,1.55,38.61,21.37,65.23
					c-39-17.12-52.54-43.4-123.96-68.14c-17-5.89-23.6-6.95-29.03-14.52C3330.05,1908.18,3389.47,1861.29,3417.22,1768.27z"/>
			</g>
			
				<linearGradient id="SVGID_62_" gradientUnits="userSpaceOnUse" x1="2242.0322" y1="1676.2354" x2="2173.8833" y2="1429.74" gradientTransform="matrix(1 0 0 1 1338.2653 0)">
				<stop  offset="0" style="stop-color:#311944"/>
				<stop  offset="1" style="stop-color:#A03976"/>
			</linearGradient>
			<path class="st66" d="M3570.14,1469.95c0,0,5.58,44.58,22.03,54.79c16.45,10.21,7.42,20.3,10.35,23.93
				c2.93,3.62-48.58,25.88-100.54-0.34l-21.67-15.23c17.1,0.07,39.05-1.16,47.74-6.11c5.92-3.37,15.45-9.95,24.2-22.37l-0.19-24.68
				L3570.14,1469.95z"/>
			
				<linearGradient id="SVGID_63_" gradientUnits="userSpaceOnUse" x1="2660.9658" y1="437.5445" x2="2347.9956" y2="698.0027" gradientTransform="matrix(0.9776 0.2107 -0.2107 0.9776 1404.814 288.1804)">
				<stop  offset="0" style="stop-color:#311944"/>
				<stop  offset="1" style="stop-color:#A03976"/>
			</linearGradient>
			<path class="st67" d="M3575.27,1489.4c0,0-19.78,17.67-41.84,3.77c-19.76-12.44,4.97-65.05,23.34-67.71
				c6.12-0.88,16.34,2.29,22.37,8.14c4.24,4.11,13.81,23.17,2.39,39.76c5.75-0.4,10.21,2.05,10.83,4.99c0.78,3.73-4.8,7.37-6.07,8.2
				C3581.91,1489.42,3577.35,1489.5,3575.27,1489.4z"/>
			
				<linearGradient id="SVGID_64_" gradientUnits="userSpaceOnUse" x1="-1388.1013" y1="1500.4647" x2="-1399.7148" y2="1330.1338" gradientTransform="matrix(-1 0 0 1 1869.0021 0)">
				<stop  offset="0" style="stop-color:#311944"/>
				<stop  offset="1" style="stop-color:#A03976"/>
			</linearGradient>
			<path class="st68" d="M3285.58,1415.2c-0.29-1.35-2.57-15.94-0.14-27.36c2.43-11.42,5.67-28.2-1.11-15.94
				c-6.78,12.27-11.72,20.1-22.8,9.41c-11.08-10.69-9.14-22.68-12.37-21.85c-3.23,0.83-12.26,21.25,0,34.27
				c12.26,13.02,26.49,26.57,26.49,26.57L3285.58,1415.2z"/>
			
				<linearGradient id="SVGID_65_" gradientUnits="userSpaceOnUse" x1="-1527.0643" y1="1430.6675" x2="-1912.2452" y2="2040.3756" gradientTransform="matrix(-1 0 0 1 1869.0021 0)">
				<stop  offset="0" style="stop-color:#FFC444"/>
				<stop  offset="0.9964" style="stop-color:#F36F56"/>
			</linearGradient>
			<path class="st69" d="M3613.05,1557.08c2.11,25.33-26.46,46.11-32.02,50.16c-53.37,38.83-167.68,11.28-238.96-54.03
				c-48.6-44.54-69.2-99.3-78.39-136.46c8.88-3,17.76-5.99,26.64-8.99c37.54,63.61,77.49,86.58,105.95,96.09
				c75.63,25.28,157.94-15.12,201.3,25.46C3601.65,1533.14,3611.87,1542.97,3613.05,1557.08z"/>
			<g>
				
					<linearGradient id="SVGID_66_" gradientUnits="userSpaceOnUse" x1="5299.3657" y1="-2.5742" x2="5333.7871" y2="-2.5742" gradientTransform="matrix(0.7181 0.6959 -0.6959 0.7181 -170.7622 -2319.9424)">
					<stop  offset="0" style="stop-color:#FFC444"/>
					<stop  offset="0.9964" style="stop-color:#F36F56"/>
				</linearGradient>
				<path class="st70" d="M3630.45,1382.54c-0.51-1.18,3.16-20.02,16.33-23.83c13.16-3.81,2.81,7.86,7.21,9.85
					c4.4,1.99,12.2,1.62,6.5,11.3c-5.71,9.68-7.89,9.4-4.92,14.62C3658.54,1399.7,3634.64,1392.21,3630.45,1382.54z"/>
				<linearGradient id="SVGID_67_" gradientUnits="userSpaceOnUse" x1="3606.9924" y1="1329.0962" x2="3606.1335" y2="1384.9275">
					<stop  offset="0" style="stop-color:#FFC444"/>
					<stop  offset="0.9964" style="stop-color:#F36F56"/>
				</linearGradient>
				<path class="st71" d="M3570.38,1394.01c6.13-5.17,17.18-13.09,32.84-17c4.59-1.15,31.53-7.43,37.66,2.78
					c2.55,4.25-0.63,7.8-5.77,25.29c-6.86,23.36-5.17,30.54-10.24,32.42c-4,1.49-8.72-1.62-31.91-22.64
					C3583.94,1406.68,3576.29,1399.57,3570.38,1394.01z"/>
				
					<linearGradient id="SVGID_68_" gradientUnits="userSpaceOnUse" x1="5260.293" y1="65.6123" x2="5351.9482" y2="65.6123" gradientTransform="matrix(0.7181 0.6959 -0.6959 0.7181 -170.7622 -2319.9424)">
					<stop  offset="0" style="stop-color:#FFC444"/>
					<stop  offset="0.9964" style="stop-color:#F36F56"/>
				</linearGradient>
				<path class="st72" d="M3551.11,1410.4c-2.99-5.22,0.61-14.35,6.47-18.79c8.73-6.61,21.45-2.04,29.31,0.79
					c17.38,6.26,47.44,24.27,44.9,45.88c-1.59,13.5-15.6,25.95-23.07,23.81c-4.25-1.22-3.69-6.39-9.9-17.88
					c-4.48-8.29-11.21-20.75-23.26-26.69C3563.47,1411.57,3554.55,1416.41,3551.11,1410.4z"/>
			</g>
			<linearGradient id="SVGID_69_" gradientUnits="userSpaceOnUse" x1="3617.1804" y1="1451.91" x2="3553.9319" y2="1552.0272">
				<stop  offset="0" style="stop-color:#FF9085"/>
				<stop  offset="1" style="stop-color:#FB6FBB"/>
			</linearGradient>
			<path class="st73" d="M3503.66,1471.93c-6.09,23.48-1.39,37.9,1.67,44.66c13.24,29.31,49.47,34.09,116.69,42.95
				c15.91,2.1,24.84,2.37,30.01-3.44c11.62-13.06,1.33-53.56-21.67-65.28c-25.53-13.01-48.95,18.48-86.68,8.59
				C3524.92,1494.5,3511.76,1481.77,3503.66,1471.93z"/>
		</g>
	</g>
</g>
</svg>
