<?xml version="1.0" encoding="utf-8"?>
<!-- Generator: Adobe Illustrator 24.1.1, SVG Export Plug-In . SVG Version: 6.00 Build 0)  -->
<svg version="1.1" id="Layer_1" xmlns="http://www.w3.org/2000/svg" xmlns:xlink="http://www.w3.org/1999/xlink" x="0px" y="0px"
	 viewBox="0 0 2857.21 2000" style="enable-background:new 0 0 2857.21 2000;" xml:space="preserve">
<style type="text/css">
	.st0{fill:#FDE0DA;}
	.st1{fill:#F7A491;}
	.st2{fill:#F48C7F;}
	.st3{fill:#13375B;}
	.st4{fill:#E65C3E;}
	.st5{fill:#FFA283;}
	.st6{fill:#466EB6;}
	.st7{fill:#FFFFFF;}
	.st8{fill:#F47458;}
	.st9{fill:#F79C8D;}
	.st10{fill:#F7CC7F;}
	.st11{fill:#355389;}
	.st12{fill:#FCDBD4;}
	.st13{fill:#C7C7C7;}
	.st14{fill:#F8A492;}
	.st15{fill:#FE875E;}
	.st16{fill:#CF492B;}
	.st17{fill:#184655;}
</style>
<g>
	<ellipse class="st0" cx="1436.06" cy="1810.22" rx="1111.61" ry="132.56"/>
	<path class="st0" d="M2541.09,1825.92c91.98-137.68,147.84-349.73,158.78-519.9c16.18-251.56-65.58-344.21-193.58-474.79
		c-55.83-56.95,0.51-215.63-155.12-312.45c-147.89-92.01-245.61-29.54-447.07-207.55C1629.92,68.96,1135.5,55.17,818.86,247.44
		C526.42,425.02,577.96,560.15,430.6,709.16c-171.59,173.51-101.56,361.53-78.28,430.21c20.27,59.81,134.79,130.58-32,285.34
		c-138.86,128.85-30.04,335.59,10.3,401.22H2541.09z"/>
	<g>
		<g>
			<g>
				<path class="st1" d="M1523.1,1139.26c7.3-16.38,16.48-67.24,19.55-84.52c-1.45-11.25-2.86-13.71-0.87-21.23
					c2.65-10.03,7.73-14.21,12.03-16.86c4.3-2.65,18.33-23.93,24.21-22.24s-12,25.69-8.15,23.31c3.84-2.37,11.98-29.74,20.29-27.36
					c8.31,2.39-12.33,32.71-7.87,33.99c4.46,1.28,14.06-21.33,20.75-19.41c6.69,1.92-14.59,30.27-12.33,28.88
					c2.26-1.4,18.11-12.21,20.23-9.18c2.39,3.42-35.03,35.22-36.13,44.52h0c0.26,23.91,1.23,67.27-9.28,93.32
					c-12.85,31.88-44.59,102.37-44.59,102.37l-49.59-17.57C1471.35,1247.29,1514.45,1158.69,1523.1,1139.26z"/>
				<path class="st2" d="M1556.84,1029.31c2.38,1.39,4.27,3.35,5.88,5.52c0.16,0.42,5.86,7.09,3.19,16.67
					C1565.43,1045.41,1564.88,1038.66,1556.84,1029.31z"/>
			</g>
			<path class="st3" d="M1376.89,1088.12c0,0-21.12-9.69-35.66,3.93c-14.54,13.62-10.09,23.97-10.09,23.97s-26,4.64-23.94,29.39
				c2.06,24.75,6.6,26.85,6.6,26.85s-9.73,10.65-6.72,23.41c3.01,12.76,14.98,16.24,14.98,16.24s7.88,21.08,25.63,23.98
				c17.75,2.9,23.7-0.44,23.7-0.44s9.84,13.22,38.17,7.39c10.38-2.13,16.93-7.15,17.96-9.67c0,0,22.07-3.54,29.72-13.34
				c13.42-17.18,7.29-28.87,7.29-28.87s14.52-26.36,3.51-45.69c-8.76-15.38-14.55-13.4-14.55-13.4s7.13-37.89-27-31.19
				C1426.49,1100.68,1413.35,1070.08,1376.89,1088.12z"/>
			<path class="st1" d="M1193.89,1255.56c0,0,2.18-8.05-3.27-21.42c-3.5-8.58-3.03-25.25-7.98-22.18
				c-4.95,3.06,0.36,18.26-3.79,16.92c-4.15-1.34-17.3-32.35-21.79-29.57c-4.49,2.78,9.79,31.23,6.08,30.03
				c-3.71-1.2-13.99-28.58-20.34-24.65c-6.34,3.93,14.95,31.07,11.54,33.18c-3.4,2.11-16.4-15.36-21.51-12.2s18.83,23,16.65,22.29
				c-2.18-0.71-17.71-6.54-18.79-3.45c-1.22,3.5,31.01,17.61,34,25.43c2.99,7.82,52.39,87.94,68.77,89.74
				c16.38,1.8,95.32-40.08,102.4-55.7c7.08-15.62,2.27-33.51-8.21-36.9c-10.48-3.39-84.4,38.61-87.69,37.55
				C1236.67,1303.56,1193.89,1255.56,1193.89,1255.56z"/>
			<path class="st2" d="M1179.54,1234.5c-1.86,2.04-3.08,4.47-3.97,7.02c-0.02,0.45-3.48,8.52,1.92,16.86
				C1176.14,1252.42,1174.66,1245.82,1179.54,1234.5z"/>
			<path class="st4" d="M1495.51,1188.87c0,0,11.2,3.36,45.69,50.23l-58.8,93.57l-30.3-87.39L1495.51,1188.87z"/>
			<g>
				<path class="st5" d="M1506.99,1591.54c0,0,2.25,46.17,2.25,74.32s-43.36,138.51-39.41,154.27
					c3.94,15.77-40.86,13.62-40.86,13.62s-3.06-85.69,8.48-126.23c11.54-40.54,0-123.87,0-123.87L1506.99,1591.54z"/>
				<path class="st5" d="M1398.24,1569.28c0,0-14.55,76.31-26.37,93.76c-11.82,17.45-75.45,136.26-75.45,151.46
					c0,15.2-39.98,2.81-39.98,2.81s33.78-130.06,47.3-169.47c13.51-39.41,18.58-72.07,18.58-72.07L1398.24,1569.28z"/>
			</g>
			<path class="st3" d="M1507.55,1493.57c4.14,25.11,20.97,177.63,20.97,177.63s-57.41,17.63-91.75,9.75c0,0-1.82-119.43-9.7-119.43
				c-0.08,0,0.08,0,0,0c-11.26,0.06-17,11.21-19.71,22.14c-6.57,26.43-26.24,99.65-26.24,99.65s-77.14-11.05-92.9-18.37
				c0,0,28.81-171.59,55.27-198.06l31.75-28.5l115.72-14.92C1490.96,1423.47,1504.63,1475.8,1507.55,1493.57z"/>
			<path class="st6" d="M1537.96,1868.55h-123.02c0,0-2.54-44.48,5.91-52.92c8.45-8.45,6.2,1.07,20.27,6.45
				c14.08,5.38,23.24-7.59,29.67-14.02c6.44-6.43,1.86,20.53,28.89,20.53C1526.7,1828.58,1544.15,1856.17,1537.96,1868.55z"/>
			<path class="st6" d="M1297.7,1809.6c6.36,1.46,26.39,17.8,33.03,35.47c6.64,17.67,4.75,23.98,4.75,23.98s-20.35,9.05-59.43,6.2
				c-39.08-2.86-33.11-7.14-33.11-7.14s2.79-40.2,9.43-52.42C1259.01,1803.46,1286.56,1807.04,1297.7,1809.6z"/>
			<path class="st7" d="M1414.94,1868.55c0,0-0.53-9.24-0.3-20.09c14.43,6.24,93.58,5.23,122.34,4.65
				c2.51,5.77,2.99,11.41,0.98,15.44H1414.94z"/>
			<path class="st7" d="M1276.05,1875.25c-39.08-2.86-33.11-7.14-33.11-7.14s0.64-9.26,2.04-20.24l0.01,0
				c27.2,24.28,69.68,11.88,88.27,4.65c3.58,12.03,2.22,16.53,2.22,16.53S1315.13,1878.1,1276.05,1875.25z"/>
			<path class="st8" d="M1403.08,1250.38c0,0,41.2-6.05,50.64-7.21c13.78,16,55.54,179.21,54.86,238.35
				c-50.08,18-161.42,42.38-194.18,41.24c0,0,5.1-42.02,8.49-61.69c8.27-48.04,14.95-107.92,14.95-124.35
				c0-9.66-50.01,23.81-50.01,23.81l-20.96-75.73c0,0,63.85-25.64,86.22-30.26C1359.34,1253.26,1403.08,1250.38,1403.08,1250.38z"/>
			<path class="st1" d="M1417.7,1211.9c0,0-5.56,40.46,6.23,51.4c12.44,11.56-45.02,8.38-49.07-10.71
				c-2.19-10.32,5.66-55.85,5.66-55.85L1417.7,1211.9z"/>
			<path class="st2" d="M1380.51,1196.73l37.19,15.17c0,0-1.36,9.91-1.31,21.25c-9.1,1.33-19.43-0.62-30.61-7.17
				c-3.22-1.89-6.14-3.97-8.79-6.21C1378.65,1207.51,1380.51,1196.73,1380.51,1196.73z"/>
			<path class="st1" d="M1361.84,1183.23c2.99,8.33,0.84,16.72-4.79,18.74c-5.63,2.02-12.61-3.1-15.6-11.43
				c-2.99-8.33-0.84-16.72,4.79-18.74S1358.85,1174.9,1361.84,1183.23z"/>
			<path class="st1" d="M1460.92,1162.78c0.42,8.84-4.09,16.23-10.06,16.51c-5.97,0.28-11.16-6.65-11.57-15.49
				s4.09-16.23,10.06-16.51C1455.32,1147.01,1460.5,1153.94,1460.92,1162.78z"/>
			<path class="st1" d="M1389.67,1108.32c0,0-18,4.76-28.57,22.27c-10.58,17.51-16.42,68.13,21.35,90.28
				c37.77,22.14,65.25-12.15,64.53-44.59C1446.27,1143.84,1431.85,1102.38,1389.67,1108.32z"/>
		</g>
		<path class="st1" d="M1541.59,1038.81c-4.03-5.77-4.31-12.46-4.04-16.14c0.27-3.69,7.47-14.56,8.77-16.63
			c0.99-1.07,5.58,4.34,3.17,9.96c-2.41,5.62-2.18,8.07,3.01,11.93C1549.98,1040.82,1541.59,1038.81,1541.59,1038.81z"/>
	</g>
	<g>
		<g>
			<path class="st3" d="M708.12,609.84c1.43-34.58-3.64-68.74-19.05-100.93c-13.26-27.7-46.06-43.42-75.97-43.46
				c-94.98-0.13-107.06,125.9-167.52,174.52c-18.47,14.85-39.12,26.95-56.6,42.97c-64.55,59.15-35.47,168.64,23.8,220.5
				c41.13,35.99,105.77,56.43,156.47,28.3c26.46-14.68,46.55-39.09,60.86-65.84c20.31-37.96,33.4-81.75,47.85-122.21
				C693.34,700.64,706.22,655.81,708.12,609.84z"/>
			<path class="st9" d="M712.53,784.54c0,0,53.68,103.6,70.18,128.3c5.02,7.52,103.4,118.04,106.2,121.16
				c2.8,3.12,58.45-2.3,56.8,4.45c-1.66,6.74-28.55,1.32-29.04,9.17c-0.49,7.85,46.41,55.63,41.73,57.84
				c-8.76,4.14-29.88-28.11-33.63-25.44c-3.75,2.68,25.26,31.54,20.57,38.17c-4.7,6.63-24.8-29.95-28.54-29.34
				c-3.75,0.6,14.17,37.06,5.98,37.78c-4.44,0.39-15.12-32.82-19.34-29.67c-4.22,3.16,5.14,28.69-0.01,28.66
				c-5.15-0.04-5.63-21.77-13.55-33.44c-7.92-11.68-7.42-24.37-25.64-39.1c-18.21-14.74-122.12-97.09-133.71-117.18
				c-24.06-41.67-63.2-113.1-63.2-113.1L712.53,784.54z"/>
			<path class="st10" d="M728.24,784.54c-32.86-88.88-73.44-95.81-73.44-95.81l31.64,191.63c18.32-5.01,50.22-18.96,68.52-24.13
				C747.3,831.8,737.28,808.99,728.24,784.54z"/>
			<path class="st1" d="M411.23,1727.86c0,0-6.69,46.52-18.2,61.53c-3.86,5.04-10.92,11.41-15.55,20.52
				c-7.21,14.17-3.22,35.28,2.1,46.9c2.73,5.96-0.19,5.95,6.03,7.87c18.41,5.69,38-3.9,45.84-21.57c4.38-9.87,8.22-23.04,8.99-39.64
				c1.97-42.24,15.07-63.71,15.07-63.71L411.23,1727.86z"/>
			<path class="st1" d="M612.62,1748.54c0,0,4.13,52.46,0.78,69.5c-1.8,9.13-11.8,27.92-7.21,36.51c4.59,8.59,9.83,10.74,9.83,10.74
				l118.88,1.92c6.48,0.11,2.2-4.07-3.03-7.92c-8.55-6.3-15.44-10.46-42.74-23.7c-1.78-0.86-8.26-5-10.6-6.43
				c-5.93-3.63-11.88-9.34-17.01-15.05c-8.54-9.53-9.28-55.72-9.28-55.72L612.62,1748.54z"/>
			<path class="st11" d="M705.54,1047.25c0,0,14.97,85.17,5.14,141c-9.83,55.84-57.01,573.39-57.01,573.39l-52.43,2.96
				c0,0-10.99-216.2-9.02-246.26c1.96-30.07,17.52-80.38,17.52-80.38l-5.22-174.55l66.16-229.31L705.54,1047.25z"/>
			<path class="st6" d="M551.45,1029.34c0,0-41.28,62.28-51.11,113.82c-9.83,51.54,7.21,209.94-11.69,277.48
				c-10.24,36.56-49.03,93.02-54.93,140.27c-5.9,47.25-29.03,171-29.03,171l52.4,10.41l121.79-309.08l95.53-279.36l24.47-143.88
				L551.45,1029.34z"/>
			<path class="st10" d="M584.87,675c0,0-54.66-3.49-76.28,20.13c-21.62,23.62,47.97,210.5,51.9,240.56
				c3.93,30.06-20.04,110.01-20.04,110.01s128.4,25.9,165.1,1.56c0,0,3.93-216.2,0-237.67c-3.93-21.48-36.7-108.81-44.56-117.4
				C653.12,683.59,584.87,675,584.87,675z"/>
			<path class="st1" d="M603.07,601.8c0,0-0.28,1.61-0.79,4.36c-2.44,13.17-11.82,56.86-18.16,68.88
				c-7.66,14.52,26.23,60.81,58.85,55.16c9.71-1.68-8.21-42.54-7.35-46.87c1.65-8.28,3.88-19.59,6.17-31.17
				c1.29-6.54,2.6-13.17,3.83-19.39c3.49-17.71,6.33-32.18,6.33-32.18L603.07,601.8z"/>
			<path class="st8" d="M602.28,606.15c0.51-2.74,0.79-4.36,0.79-4.36l48.88-1.22c0,0-2.85,14.48-6.33,32.18
				c-1.22,6.19-2.52,12.78-3.8,19.29c-7.55-1.11-15.43-4.79-23.34-11.73c-8.62-7.56-14.27-16.65-17.68-26.35
				C601.4,610.87,601.9,608.2,602.28,606.15z"/>
			<path class="st1" d="M635.97,490.44c0,0-23.04-2.67-37.48,16.05c-14.44,18.72-30.01,76.61,5.87,108.09
				c35.88,31.48,71.32-4.15,76.58-41.93C686.19,534.87,688.23,489.07,635.97,490.44z"/>
			<path class="st1" d="M691.54,572.09c-4.28,8.34-11.47,12.96-16.05,10.32c-4.58-2.64-4.83-11.55-0.55-19.9
				c4.28-8.34,11.47-12.96,16.05-10.32C695.58,554.84,695.83,563.75,691.54,572.09z"/>
			<path class="st3" d="M638.54,484.25c0,0-30.78,55.05-52.8,57.6c-22.02,2.54-24.91,31.8-24.91,31.8s7.87-67.41,29.67-80.41
				C612.3,480.24,638.54,484.25,638.54,484.25z"/>
			<path class="st8" d="M435,1833.81c-28.56,5.22-47.56-11.52-57.45-24.06c-7.26,14.2-10.8,35.39-5.46,47.06
				c4.7,10.28,18.45,9.98,29.27,10.38c11.44,0.43,20.29-5.95,25.97-15.93C429.97,1846.6,432.71,1840.79,435,1833.81z"/>
			<path class="st8" d="M678.52,1829.16c-31.44,8.08-54.68,2.59-67.68-2.67c-3.35,9.52-7.8,21.47-5.44,28.36
				c2.89,8.44,7,10.34,10.63,10.44c28.72,0.75,105.2,1.78,127.09,2.07c3.06,0.04,4.74-3.54,2.78-5.89
				C740.47,1854.97,680.86,1830.59,678.52,1829.16z"/>
			<path class="st1" d="M591.52,555.68c1.79,9.78-1.81,18.74-8.05,20.03c-6.23,1.28-12.74-5.6-14.53-15.38
				c-1.79-9.78,1.81-18.74,8.04-20.03C583.22,539.02,589.73,545.9,591.52,555.68z"/>
			<path class="st7" d="M627.48,589.54l27.79,1.26c0,0-1.12,10.53-13.35,10.33C626.99,600.88,627.48,589.54,627.48,589.54z"/>
			<g>
				<g>
					<path class="st3" d="M744.85,755.15c-20.24,9.22-27.69,23.47-20.13,50.08c5.3,14.93,39.78,52.33,79.52,49.88
						c-34.95-25.56-41.95-76.75-18.67-79.27C777.94,749.38,744.85,755.15,744.85,755.15z"/>
					<path class="st6" d="M845.31,853.16c-3.52-69.18-17.33-102.15-53.97-127.38c-13.95-9.69-32.78-6.94-56.15,14.29
						c-27.98,25.43-22.14,34.51-10.48,65.15c-3.93-18.65,0.72-37.84,17.95-39.34c17.23-1.5,40.1,4.54,67.88,40.45
						C828.96,830.15,832.18,859.91,845.31,853.16z"/>
					<path class="st3" d="M940.73,741.29c3.69,33.22-26.83,54.82-55.22,81.79c-14.89,14.14-22.31,28.18-22.31,28.18
						c-6.29-4.97-3.19-9.61-1.64-16.54c30.08-45.26,34.18-77.82,23.52-85.6C889.51,730.66,931.84,705.04,940.73,741.29z"/>
					<path class="st6" d="M844.2,851.25c-12.98-76.23-11.11-113.16,1.31-137.86c13.37-26.59,27.25-33.01,52.56-20.43
						c40.33,20.05,43.1,33.31,42.66,48.32c-7.38-17.08-23.79-15.79-34.05-8c-10.25,7.78-32,33.51-38.56,71.02
						c-2.05,12.86-6.15,36.93-4.92,46.95C857.87,852.63,844.8,854.78,844.2,851.25z"/>
					<path class="st3" d="M961.16,796.62c6.97,17.19,3.7,50.42-54.35,56.94c28.1,16.03,104.93,4.61,108.09-19.64
						c4.51-30.92-11.49-38.29-28.3-42.39C969.78,787.43,961.16,796.62,961.16,796.62z"/>
					<path class="st6" d="M863.53,851.11c28.71-49.84,78.35-103.37,112.4-102.98c18.13,0,48.23,67.74,38.97,85.79
						c-1.23-25.3-16-33.29-37.33-32.54c-21.33,0.76-66.54,41.63-88.85,49.73C869.69,855.75,863.53,851.11,863.53,851.11z"/>
				</g>
				<rect x="677.26" y="918.12" class="st8" width="348.95" height="257.12"/>
				<rect x="644.7" y="849.94" class="st8" width="414.06" height="68.18"/>
				<g>
					<polygon class="st12" points="697.69,849.94 683.4,849.94 644.7,885.77 644.7,899 					"/>
					<polygon class="st12" points="818.95,849.94 804.66,849.94 731.01,918.12 745.3,918.12 					"/>
					<polygon class="st12" points="940.2,849.94 925.91,849.94 852.26,918.12 866.55,918.12 					"/>
					<polygon class="st12" points="1058.76,852.44 1058.76,849.94 1047.17,849.94 973.52,918.12 987.81,918.12 					"/>
				</g>
				<g>
					<polygon class="st12" points="892.78,918.12 878.49,918.12 677.26,1104.4 677.26,1117.63 					"/>
					<polygon class="st12" points="736.27,1175.24 1014.04,918.12 999.75,918.12 721.98,1175.24 					"/>
					<polygon class="st12" points="771.53,918.12 757.24,918.12 677.26,992.15 677.26,1005.38 					"/>
					<polygon class="st12" points="1026.2,1131.35 1026.2,1118.12 964.49,1175.24 978.78,1175.24 					"/>
					<polygon class="st12" points="1026.2,1019.1 1026.2,1005.87 843.24,1175.24 857.53,1175.24 					"/>
				</g>
				<polygon class="st13" points="677.26,929.02 1026.2,921.1 1026.2,918.12 677.26,918.12 				"/>
				<path class="st6" d="M839.56,849.94c-12.05-4.72-40.07-1.43-60.34,0.31c-16.91,8.43-40.92,33.78-53.05,63.09
					c23.99-31.91,54-25.86,54.25,18.09C791.65,886.52,836.96,853.39,839.56,849.94z"/>
				<path class="st6" d="M859.42,849.94c39.56,25.1,60.75,62.73,70.65,99.03c12.25,47.3-7.84,75.85-11.68,89.45
					c64.03-84.78,67.84,0,67.84,0c21.84-52.03,15.83-105.23-16.05-141.92c-31.88-36.69-54.37-44.7-66.51-48.81
					C891.52,843.58,867.41,845.14,859.42,849.94z"/>
			</g>
			<path class="st1" d="M546.65,782.84c0,0,38.35,118.02,51.37,146.8c3.97,8.76,88,141.8,90.4,145.56
				c2.4,3.76,61.73,7.73,58.82,14.52c-2.91,6.79-30.19-3.57-32.06,4.58c-1.88,8.15,39.05,66.42,33.75,67.93
				c-9.91,2.82-26.47-34.68-30.87-32.53c-4.4,2.16,21.03,37.48,14.95,43.62c-6.08,6.14-20.82-35.72-24.86-35.74
				c-4.03-0.02,8.43,41.34-0.28,40.68c-4.73-0.36-10.17-37.06-15.15-34.49c-4.98,2.58,0.41,31-4.98,30.07s-2.13-23.81-8.42-37.44
				c-6.29-13.63-3.56-26.85-20.11-45.48c-16.55-18.63-111.28-123.07-119.96-146.15c-18.01-47.89-46.68-129.64-46.68-129.64
				L546.65,782.84z"/>
			<path class="st10" d="M499.72,866.23c0,0-23.57-104.08-19.48-134.27c4.09-30.19,39.97-58.33,64.84-47.89
				c24.87,10.44,36.14,155.74,36.14,155.74L499.72,866.23z"/>
		</g>
		<g>
			<g>
				<path class="st14" d="M1678.38,999.26c23.96,3.88,22.55,7.8,25.63,8.21c3.64,0.49,46.9-21.23,46.9-21.23
					s127.92-63.14,134.7-66.8l92.33-116.16l71.16,32.82c0,0-103.84,123.5-110.41,128.94c-6.57,5.44-189.99,69.76-205.94,75.96
					c0,0-16.08,14.7-26.49,23.58c-10.41,8.88-24.32,12.4-27.64,14.42c-0.49,0.3-11.97,6.36-28.19,9.89
					c-13.98,3.04-2.33-6.45-2.33-6.45s24.73-10.44,23.51-12.33c-0.94-1.46-14.08,5.07-29.51,8.6c-3.96,0.91-7.88,1.79-11.49,2.57
					c-9.47,2.05-13.63-3.37-4.12-7.14c3.36-1.33,9-3.4,13.24-4.29c4.59-0.96,8.44-3.36,12.15-4.78c7.37-2.8,12.78-4.75,12.49-5
					c-0.38-0.33,0.66-1.96-3.59-1.13c-5.1,1-15.39,5.59-23.03,6.45c-4.33,0.49-13.3,2.08-13.3,2.08s-15.87,1.52-15.98-0.71
					c-0.24-4.86,9.53-7.58,15.54-7.45c3.78-1.93,13.27-3.32,13.27-3.32s18.41-7.26,17.34-9.99c-0.43-1.09-11.57,0.58-23.39,1.39
					c-12.5,0.86-21.55,0.85-22.22-1.57c-1.06-3.84,8.89-5.3,8.89-5.3s8.77-1.28,11.64-1.93c3.37-0.77,13.25-3.86,13.25-3.86
					s33.85-12.44,32.63-14.93c-1.22-2.5-6.81-7.73-9.2-7.71c-2.38,0.01-6.65,2.39-9.04,2.41c-2.39,0.02-7.52-0.45-7.88-3.45
					c-0.36-3,12.9-9.22,12.9-9.22S1671.46,998.14,1678.38,999.26z"/>
				<path class="st11" d="M1913.69,875.22c0,0,23.04,20.93,32.62,27.82c7.96,5.73,46.78,24.42,46.78,24.42s38.61-59.13,55.5-88.78
					c20.48-35.98,34.67-89.47,29.83-90.92c-13.59-4.07-32.29-6.56-49.55,1.36C1969.11,776.54,1913.69,875.22,1913.69,875.22z"/>
				<path class="st15" d="M1700.76,1030.16c-10.25,1.62-20.73-0.33-25.28-9.72C1674.46,1031.57,1691.33,1037.09,1700.76,1030.16z"/>
			</g>
			<path class="st1" d="M2291.78,1782.66c0,0,2.55,45.27,2.57,45.37c0.94,5.75,4.64,19.95,4.64,25.17
				c0,19.63-87.09-16.66-67.57-25.36c1.77-0.79,11.02-6.74,11.6-13.42c0.9-10.29,3.17-31.12,3.17-31.12L2291.78,1782.66z"/>
			<path class="st10" d="M2230.58,1828.03c0,0,20.45,6.01,30.92,7.5c10.47,1.5,24.28-11.14,31.69-7.72
				c8.15,3.76,7.83,37.58,7.83,37.58s-109.65,9.63-140.48-0.33C2148.33,1861.12,2188.79,1842.02,2230.58,1828.03z"/>
			<path class="st1" d="M2436.81,1784c0,0,2.56,45.27,2.57,45.37c0.94,5.75,4.64,19.95,4.64,25.17c0,19.63-87.09-16.66-67.57-25.36
				c1.77-0.79,13.76-11.19,14.35-17.87c0.9-10.29,0.42-26.67,0.42-26.67L2436.81,1784z"/>
			<path class="st10" d="M2376.66,1828.99c0,0,20.45,6,30.92,7.5c10.47,1.5,24.28-11.14,31.68-7.73c8.15,3.76,8.48,37.58,8.48,37.58
				s-108.87,4.47-141.12-0.33C2293.93,1864.13,2334.86,1842.97,2376.66,1828.99z"/>
			<path class="st11" d="M2410.98,1060.16c0,0,14.76,76.37,8.74,134.27c-6.01,57.91-6.49,263.6-6.49,263.6l27.74,329.01l-59.25,1.38
				c0,0-64.58-328.96-63.37-320.52c1.2,8.44-21.65-231.62-21.65-231.62l76.99-183.37L2410.98,1060.16z"/>
			<path class="st6" d="M2390.33,1010.84c0,0,66.86,70.42,41.99,147.35c-9.99,30.9-103.18,326.08-104.38,350.2
				c-1.2,24.13-31.51,290.81-31.51,290.81l-63.32-1.91l-13.7-296.5l18.1-399.49l38.44-67.38L2390.33,1010.84z"/>
			<path class="st8" d="M1984.39,781.61c21.89-24.43,69.55-59.19,69.55-59.19s28.39-24.25,39.96-28.24
				c17.03-5.87,46.21-21.54,88.41,42.41c30.2,45.77,220.75,282.75,252.04,290.73l-204.27,97.73
				c-5.59-46.68-106.56-134.86-121.08-151.31C2076.52,936.97,1963.67,804.74,1984.39,781.61z"/>
			<path class="st1" d="M1993.91,682.32l63.63,37.25c0,0,1.79,54.32-19.01,68.42c-17.45,11.84-30.74-16.57-30.74-16.57
				s-23.66-32.79-41.63-43C1948.19,718.21,1993.91,682.32,1993.91,682.32z"/>
			<path class="st8" d="M2004.59,706.23c-2.39,11.33-7.93,27.71-16.52,41.21c-7.01-7.58-14.89-15.03-21.91-19.02
				c-8.3-4.71-3.02-14.89,5.07-24.49c11.42-11.89,22.68-21.61,22.68-21.61l12.23,7.16C2006.93,694.12,2005.39,702.46,2004.59,706.23
				z"/>
			<path class="st1" d="M1960.77,588.96c1.07-1.32,53.38,63.79,46.92,94.33c-6.45,30.54-38.07,58.41-60.05,50.75
				c-24.31-8.48-69.51-85.13-53.3-122.35C1910.56,574.48,1960.77,588.96,1960.77,588.96z"/>
			<path class="st3" d="M1903.5,568.43c22.8-12.68,60-16.33,87.79-1.77c34.17,17.89,41.95,62.9,31.26,90.36
				c-10.7,27.46,1.55,42.98,1.55,42.98l-18.13-10.59c0,0-10.59-16.53-11.97-29.7c-1.38-13.17-20.6-10.84-29.98-16.81
				c-7.22-4.6-16.44-19.55-28.13-27.3c0,0-29.42-3.61-43.89,4.51C1867.33,633.95,1870.84,586.6,1903.5,568.43z"/>
			<path class="st1" d="M1978.72,653.87c-0.17,9.77,4.45,17.76,10.31,17.86c5.86,0.1,10.75-7.74,10.92-17.51
				c0.17-9.77-4.45-17.76-10.31-17.86C1983.78,636.26,1978.89,644.1,1978.72,653.87z"/>
			<path class="st7" d="M1925.15,705.72l27.69-20.71c0,0,7.32,11.19-4.59,20.65C1933.73,717.2,1925.15,705.72,1925.15,705.72z"/>
		</g>
		<g>
			<g>
				<path class="st16" d="M1636.63,827.5c-15.37,7.01-21.03,17.83-15.29,38.04c4.03,11.34,30.22,39.75,60.41,37.89
					c-26.55-19.41-31.87-58.3-14.18-60.22C1661.77,823.12,1636.63,827.5,1636.63,827.5z"/>
				<path class="st8" d="M1712.95,901.95c-2.67-52.56-13.16-77.6-41-96.76c-10.59-7.36-24.9-5.27-42.65,10.86
					c-21.25,19.32-16.81,26.22-7.96,49.49c-2.99-14.17,0.54-28.74,13.63-29.88c13.09-1.14,30.46,3.45,51.56,30.73
					C1700.53,884.47,1702.98,907.08,1712.95,901.95z"/>
				<path class="st16" d="M1785.43,816.97c2.8,25.23-20.38,41.64-41.95,62.13c-11.31,10.74-16.94,21.41-16.94,21.41
					c-4.78-3.77-2.43-7.3-1.25-12.56c22.85-34.38,25.97-59.12,17.87-65.03C1746.52,808.9,1778.68,789.43,1785.43,816.97z"/>
				<path class="st8" d="M1712.11,900.5c-9.86-57.91-8.44-85.96,0.99-104.72c10.16-20.2,20.7-25.08,39.93-15.52
					c30.64,15.23,32.74,25.31,32.41,36.71c-5.61-12.98-18.07-11.99-25.86-6.08c-7.79,5.91-24.31,25.46-29.29,53.95
					c-1.56,9.77-4.67,28.05-3.74,35.66C1722.49,901.55,1712.56,903.18,1712.11,900.5z"/>
				<path class="st16" d="M1800.96,859c5.3,13.06,2.81,38.3-41.29,43.25c21.34,12.18,79.71,3.5,82.11-14.92
					c3.43-23.49-8.72-29.09-21.5-32.2C1807.5,852.02,1800.96,859,1800.96,859z"/>
				<path class="st8" d="M1726.79,900.39c21.81-37.86,59.52-78.52,85.38-78.23c13.78,0,36.64,51.46,29.6,65.17
					c-0.93-19.22-12.15-25.29-28.36-24.72c-16.2,0.57-50.55,31.62-67.5,37.78C1731.46,903.92,1726.79,900.39,1726.79,900.39z"/>
			</g>
			<rect x="1592.9" y="951.3" class="st6" width="265.07" height="195.32"/>
			<g>
				<path class="st17" d="M1629.42,983.36c0,7.1-5.76,12.86-12.86,12.86c-7.1,0-12.86-5.76-12.86-12.86
					c0-7.1,5.76-12.86,12.86-12.86C1623.66,970.5,1629.42,976.26,1629.42,983.36z"/>
				<path class="st17" d="M1706.27,1048.96c0,7.1-5.76,12.86-12.86,12.86c-7.1,0-12.86-5.76-12.86-12.86s5.76-12.86,12.86-12.86
					C1700.51,1036.1,1706.27,1041.86,1706.27,1048.96z"/>
				<path class="st17" d="M1629.42,1114.68c0,7.1-5.76,12.86-12.86,12.86c-7.1,0-12.86-5.76-12.86-12.86
					c0-7.1,5.76-12.86,12.86-12.86C1623.66,1101.82,1629.42,1107.57,1629.42,1114.68z"/>
				<path class="st17" d="M1773.03,983.36c0,7.1-5.76,12.86-12.86,12.86s-12.86-5.76-12.86-12.86c0-7.1,5.76-12.86,12.86-12.86
					S1773.03,976.26,1773.03,983.36z"/>
				<path class="st17" d="M1849.88,1048.96c0,7.1-5.76,12.86-12.86,12.86c-7.1,0-12.86-5.76-12.86-12.86s5.76-12.86,12.86-12.86
					C1844.13,1036.1,1849.88,1041.86,1849.88,1048.96z"/>
				<path class="st17" d="M1773.03,1114.68c0,7.1-5.76,12.86-12.86,12.86s-12.86-5.76-12.86-12.86c0-7.1,5.76-12.86,12.86-12.86
					S1773.03,1107.57,1773.03,1114.68z"/>
			</g>
			<rect x="1581.16" y="899.51" class="st6" width="288.54" height="51.79"/>
			<g>
				<path class="st17" d="M1811.3,903.51c0,7.1,5.76,12.86,12.86,12.86c7.1,0,12.86-5.76,12.86-12.86c0-1.4-0.23-2.75-0.65-4.01
					h-24.43C1811.54,900.77,1811.3,902.11,1811.3,903.51z"/>
				<path class="st17" d="M1710.52,932.01c0,7.1-5.76,12.86-12.86,12.86c-7.1,0-12.86-5.76-12.86-12.86
					c0-7.1,5.76-12.86,12.86-12.86C1704.76,919.15,1710.52,924.91,1710.52,932.01z"/>
				<path class="st17" d="M1581.16,899.51v8.03c0.96,0.23,1.96,0.36,3,0.36c5.53,0,10.23-3.5,12.05-8.4H1581.16z"/>
			</g>
			<polygon class="st13" points="1592.9,959.58 1857.97,953.56 1857.97,951.3 1592.9,951.3 			"/>
		</g>
		<path class="st14" d="M1855.6,1117.63c6.94-10.13,9.96-24.76,19.55-35.91c3.22-3.75,8.35-7.97,14.18-12.18
			c46.14-26.99,166.33-96.58,171-101.98c5.54-6.4,87.58-142.69,87.58-142.69l-73.68-16.69l-72,127.14
			c-6.01,4.77-120.3,89.24-120.3,89.24s-22.72,17.76-35.15,26.07c-6.28,3.66-12.36,6.03-17.69,7.89c-6.7,2.33-19.48,8.7-22.07,10.97
			c-3,2.64-9.01,8.29-12.58,11.74c-3.57,3.45-7.9,7.34-9.58,9.39c-1.01,1.25-4.18,2.97-6.49,4.13c-3.45,1.72-3,6.83,0.71,7.89
			c3.5,0.99,8.23-1.2,11.16-2.58c8.27-3.89,18.38-14.38,18.92-13.1s-9.73,23.78-10.74,26.42c-1.01,2.65-12.79,28.85-13.4,34.7
			c-0.6,5.84,2.92,7.19,5.54,5.05c2.26-1.84,21.21-36.83,21.21-36.83s2.43-4.46,3.37-1.91c0.94,2.55-16.2,34.36-17.88,39.58
			c-1.67,5.22-0.34,9.5,4.49,7.67c5.87-2.22,22.08-37.31,22.08-37.31s2.11-4.36,3.55-2.84c1.44,1.52-13.6,28.34-13.77,31.43
			c-0.17,3.09,2.62,6.14,6.68,3.55c4.78-3.04,18.99-34.48,18.99-34.48s1.75-2.08,2.3-0.62c0.55,1.46-10.64,25.24-9.8,28.72
			c0.7,2.92,3.33,2.33,3.33,2.33C1840.97,1152.39,1848.66,1127.76,1855.6,1117.63z"/>
		<path class="st11" d="M2127.74,896.86c0,0-23.99-7.63-39.38-14.68c-10.31-4.72-55.27-27.09-55.27-27.09s19.38-81.77,32.49-111.16
			c48.09-107.9,102.74-33.48,110.15-16.14C2192.31,766.58,2127.74,896.86,2127.74,896.86z"/>
	</g>
</g>
</svg>
